<svg xmlns="http://www.w3.org/2000/svg" viewBox="0 0 3550 2000"><defs><style>.cls-1{isolation:isolate;}.cls-14,.cls-2,.cls-53{fill:#fff;}.cls-3{fill:#ff5c6c;}.cls-4{fill:#fcee21;}.cls-5{opacity:0.5;}.cls-6{fill:#fbb03b;}.cls-13,.cls-33,.cls-7{fill:#e6e6f9;}.cls-8{fill:#443028;}.cls-9{fill:#d5faf9;}.cls-10{fill:#86cae1;}.cls-11{fill:#a6dee1;}.cls-12{fill:#98d2d9;}.cls-12,.cls-13,.cls-25,.cls-34,.cls-36{mix-blend-mode:multiply;}.cls-14,.cls-33{mix-blend-mode:soft-light;}.cls-15{fill:#423786;}.cls-16{fill:#443b8b;}.cls-17{fill:#0154a6;}.cls-18{fill:#ea9d89;}.cls-19{fill:#ea8c7f;}.cls-20{fill:#0160a9;}.cls-21{fill:#d3334d;}.cls-22{opacity:0.27;}.cls-23{fill:#ea5e69;}.cls-24{opacity:0.28;}.cls-25{fill:#f7e6f9;}.cls-26{fill:#9467b4;}.cls-27{fill:#2fa547;}.cls-28{fill:#323434;}.cls-29,.cls-34{fill:#f1f3fd;}.cls-30{fill:#0447bc;}.cls-31{fill:#74cce6;}.cls-32{fill:#66c2e6;}.cls-35{fill:#b6b6b6;}.cls-36,.cls-38{fill:#d9dae5;}.cls-37{fill:#fc3a52;}.cls-39{font-size:241px;}.cls-39,.cls-44,.cls-53{font-family:MyriadPro-Regular, Myriad Pro;}.cls-40{letter-spacing:0.02em;}.cls-41{letter-spacing:-0.02em;}.cls-42{letter-spacing:-0.04em;}.cls-43{letter-spacing:-0.07em;}.cls-44{font-size:119px;fill:#1a1a1a;}.cls-45{letter-spacing:0em;}.cls-46{letter-spacing:-0.01em;}.cls-47{letter-spacing:-0.01em;}.cls-48{letter-spacing:-0.01em;}.cls-49{letter-spacing:0em;}.cls-50{letter-spacing:0em;}.cls-51{font-size:110px;letter-spacing:0em;}.cls-51,.cls-52{fill:#000;}.cls-52{font-size:94px;}.cls-53{font-size:62.57px;}.cls-54{letter-spacing:0em;}</style></defs><g class="cls-1"><g id="Ñëîé_1" data-name="Ñëîé 1"><rect class="cls-2" width="3550" height="2000"/><rect class="cls-3" x="2595.78" y="1268.4" width="395.77" height="135.78" rx="56.69"/><path class="cls-4" d="M2050.72,1462.78c-1.92-30.15-11.06-58.08-21.08-85.15-20.55-55.53-47.67-115.18-17.87-178.76,17.33-37,45-67.26,66.23-101.74,19.3-31.42,31.15-66.19,27-102-8.19-70.9-64.64-119.85-118.12-150.31C1921.45,807.59,1845.57,793,1769.24,791c-39.52-1.06-79.43,1.31-119.28,6-39.41,4.6-78.64,12.66-118,18.21-39.1,5.52-79.45,8.71-116.62-1.44s-63.25-35.39-81.89-70.06c-17.21-32-29.68-67.29-52.37-95.13-24.49-30-57.82-50.38-92.87-64.21-67.1-26.46-142.22-34.29-216.3-25A477.37,477.37,0,0,0,862.7,586.11c-34.47,13-68.56,31.9-95.29,60.8-53.13,57.44-65.64,144.24-48.74,214.23,18.66,77.25,67.64,137.38,118.91,189.66,29.54,30.12,60.11,59,89.16,89.68,15.49,16.36,33.92,36.1,41.94,59.85a7.24,7.24,0,0,0-2,.74c-27.18,14.64-57.4,14.6-85.5,24.89-26.73,9.79-49.67,31.85-52.93,63.22-3.39,32.59,14.1,63.35,36,81.37,28,23.08,65.41,32.11,101.56,33.88,77.69,3.8,156.36-25.62,233.92-21.56,84.37,4.43,148.89,58.59,210.35,110.77,31.1,26.4,62.51,52.23,96.63,74.26a647.53,647.53,0,0,0,110.91,57.3,659.46,659.46,0,0,0,118.9,35.1c35,6.81,71.19,10.68,107.72,7.85,69.12-5.35,140-38.79,181.21-106.65C2043.69,1531.41,2052.88,1496.73,2050.72,1462.78Z"/><g class="cls-5"><path class="cls-2" d="M1685.62,1234.81h-58.27v-27a161.61,161.61,0,0,1-63.87-26.82l-19.35,19.35-41.2-41.18,19.74-19.75a161.29,161.29,0,0,1-25.61-63.48h-28.6v-58.26h29.37a162.13,162.13,0,0,1,26.44-61.89l-21.34-21.35,41.2-41.18L1565.84,915a161.58,161.58,0,0,1,61.51-25.22v-31h58.27v31A161.75,161.75,0,0,1,1747.11,915l21.73-21.72L1810,934.41l-21.34,21.35a162.13,162.13,0,0,1,26.44,61.89h29.38v58.26h-28.6a161.44,161.44,0,0,1-25.61,63.48l19.73,19.75-41.19,41.18L1749.48,1181a161.57,161.57,0,0,1-63.86,26.82Zm-42-16.31h25.64v-24.76l7-1a145.21,145.21,0,0,0,69-29l5.68-4.4,17.87,17.87,18.12-18.11-18.06-18.08,4.21-5.65a145.23,145.23,0,0,0,27.67-68.66l.89-7.15h26.52V1034h-27l-1-7A145.48,145.48,0,0,0,1771.5,960l-4.4-5.67L1787,934.41l-18.12-18.11-20.06,20-5.65-4.2a145.34,145.34,0,0,0-66.79-27.39l-7-1V875.06h-25.64v28.72l-7,1a145.24,145.24,0,0,0-66.8,27.39l-5.65,4.2-20-20L1526,934.41l19.86,19.87-4.4,5.67a145.47,145.47,0,0,0-28.7,67.06l-1,7h-27v25.64h26.52l.9,7.15a145.12,145.12,0,0,0,27.66,68.66l4.21,5.65L1526,1159.14l18.13,18.11,17.87-17.87,5.67,4.4a145.21,145.21,0,0,0,68.95,29l7,1Zm12.8-89.47a80.28,80.28,0,1,1,80.3-80.28A80.36,80.36,0,0,1,1656.46,1129Zm0-144.24a64,64,0,1,0,64,64A64,64,0,0,0,1656.46,984.79Z"/></g><path class="cls-6" d="M670.14,1026c-9.26-19.64-19.37-38.92-29.46-58.14a379,379,0,0,1-29.86,137.06c5.21-47.46-14-94.39-26.67-139a439.69,439.69,0,0,0-29.27-75.46c-5.84-11.76-41.52-55.08-40-65.4L495.28,958.59c8.46-40.75-3.54-83.61-24.42-119.61s-50.13-66.29-79.07-96.2q.39,63.15.77,126.29c8-76.65-28.91-156.34-92.51-199.85q1.57,39.87,3.17,79.73c-5.16-61-42.62-118.39-96.41-147.66a226,226,0,0,1,13.89,79.38c-30.78-45.52-82-76.65-136.53-83C95.79,631.84,108.53,672.2,127.31,703c17.93,29.38,61.68,49.58,93.45,58.12l-92.06.85c26.52,55.48,94.06,87.84,153.92,73.76a260,260,0,0,1-111.45,27.59c35.77,42.84,93.16,66.63,148.75,61.65a337.24,337.24,0,0,1-105,10.24A259.49,259.49,0,0,0,348.7,1046.71a385.64,385.64,0,0,1-112.19-23.55C270,1088,329.91,1134.44,388,1178.7a210.67,210.67,0,0,1-98.81-16.89c5.19,2.26,13.59,27.24,16.82,32.91a420.15,420.15,0,0,0,23.93,37.34c22.79,31.76,48,68.74,81.59,89.23a277.59,277.59,0,0,0,126.09,40.06c14,.9,28.53.66,41.65-4.43s24.76-15.82,27.64-29.59c16.66,11.58,40.68,11.29,57-.7,22-16.11,28.62-55.53,33.73-81.08,11.1-55.47,15.21-101.8-2.5-157.37A504.89,504.89,0,0,0,670.14,1026Z"/><path class="cls-6" d="M148.56,657.82q48.78,37.26,93.65,79.27A134.38,134.38,0,0,0,232,669c-1-2.44,2.61-4.38,3.67-1.93a138.8,138.8,0,0,1,10.08,35.63c1.46,10.19-.23,21.29,2.47,31.15C253.53,753,269,762.74,282,776q29.52,30.16,57,62.22c2.91-5.78,3.67-12.3,3.64-18.71,0-7-.84-14.12-1.52-21.14a205.59,205.59,0,0,0-8-41.86,180.33,180.33,0,0,0-8.77-22.43c-1.14-2.41,2.53-4.35,3.66-1.94a184.36,184.36,0,0,1,13.87,41.8c1.52,7.54,2.49,15.18,3.25,22.83.71,7.21,1.53,14.47,1.67,21.72.18,9.53-1.25,19.85,2.37,28.94s11.18,16.11,17.21,23.59q15.48,19.17,30.26,38.89,15.15,20.19,29.55,41c3.12-8.34,6.19-16.74,8.09-25.45a90,90,0,0,0,1.12-29c-1-9-2.4-18.07-3.91-27A228.78,228.78,0,0,0,426,844a114.69,114.69,0,0,0-11.39-27c-1.36-2.3,2.31-4.22,3.67-1.94,9.13,15.4,13.7,32.92,16.8,50.41,1.62,9.18,3.05,18.42,4.16,27.68,1.17,9.84,1.57,19.69-.16,29.49-1.94,11.08-7.72,22-6.27,33.54,1.53,12.19,13.53,24.3,20.08,34.39a2.19,2.19,0,0,1,1.65,2.53q21,32.55,40.33,66.18c2.94,5.11,5.82,10.25,8.69,15.4.05-.06.08-.12.13-.17,27.38-29.71,30.3-72.57,30.77-110.93.15-11.66-.18-23.37-2.8-34.79-.59-2.6,3.45-3.53,4-.92,2.4,10.46,3,21.23,2.94,31.93s-.32,21.42-1.09,32.09c-1.45,20.23-5,40.63-13.56,59.14-4.47,9.63-12.53,17.74-13.19,28.67-.58,9.71,5.37,17.9,9.7,26.08q9.84,18.62,19.19,37.48,18.39,37.15,34.85,75.23,10.95,25.32,21,51a254.79,254.79,0,0,0,37.38-69.16,261.17,261.17,0,0,0,15-78.12,249.18,249.18,0,0,0-2.41-44.68c-.37-2.63,3.67-3.57,4.05-.92a258.42,258.42,0,0,1-1.09,80.59,266.11,266.11,0,0,1-25.55,76.75c-7.47,14.54-21.94,28.33-21,45.22.89,16.27,9.16,31,14.48,46.06q10.63,30.16,20.12,60.71,3.23,10.39,6.32,20.82c.75,2.57-3.24,3.7-4,1.14q-6.86-23.12-14.37-46c-2.72-8.29-5.32-16.82-9.94-24.3-2.2-3.54-5.44-8.81-9.16-10.93-4.26-2.42-10.15-1.55-15.12-1.84-24.6-1.39-49.18-4.85-72.85-11.8-27-7.94-52.87-20.63-74.51-38.8a159.82,159.82,0,0,1-30.64-34.09c-1.48-2.23,2.21-4.14,3.66-1.94,14.82,22.39,35.8,40.1,59.21,53,26.21,14.43,55.47,22.57,85,26.63a418.22,418.22,0,0,0,50.51,3.58q-14.58-41-31.29-81.17-10.65-25.56-22.19-50.75c-6-13-14.12-32.85-31.11-33.35-11.43-.34-23,2.3-34.62,1.63a167.33,167.33,0,0,1-130-75c-1.47-2.22,2.21-4.14,3.67-1.93a164.43,164.43,0,0,0,52.25,50,163.43,163.43,0,0,0,120.89,18.87q-17.5-35.61-36.76-70.31-13.47-24.22-27.84-47.93c-7.41-12.22-14.2-25.94-27.82-32.23-8.08-3.74-16.64-1.59-25.33-1.71a179.44,179.44,0,0,1-30.32-3.07c-20.95-3.89-41.14-11.23-60.2-20.66a296.33,296.33,0,0,1-31.54-18.18c-2.23-1.46,0-5,2.25-3.48a275.09,275.09,0,0,0,56,28.69c19.46,7.17,39.93,11.82,60.69,12.53a154.24,154.24,0,0,0,31.11-2q-20.22-31.12-42-61.22c-10.83-14.92-18.17-26.91-38-27.47a211.17,211.17,0,0,1-90-22.92c-2.38-1.2-.12-4.68,2.25-3.48a208.39,208.39,0,0,0,81.91,22c6.7.38,13.42.42,20.12.16-1.86.07-9.74-12.52-11.2-14.36q-6-7.63-12.21-15.21-12.31-15.12-25.06-29.89c-12.42-14.38-23.51-31.59-40.59-40.94-10.43-5.71-18.78-2.22-30.16-1.33a181.1,181.1,0,0,1-39.63-1,132.45,132.45,0,0,1-18.58-4c-2.56-.75-1.29-4.7,1.28-3.95,13.47,4,27.5,5.41,41.51,5.36a219.32,219.32,0,0,0,40.74-4.07A1247.28,1247.28,0,0,0,162.82,674.12q-8.52-6.75-17.16-13.34C143.54,659.16,146.47,656.22,148.56,657.82Z"/><path class="cls-6" d="M1416,586.73a255.47,255.47,0,0,1-89.5,160c-5.76,4.76-11.91,9.34-19,11.53-28.57,8.77-16-15.67-8.32-29.57a401.11,401.11,0,0,1,34.07-51.17C1358.32,645.06,1387.2,615.82,1416,586.73Z"/><path class="cls-6" d="M1037,811.75c-10.52-71.7-1.84-143.47,24.21-200.08a1003.81,1003.81,0,0,1,57.24,180.12c9,41.38,50.85,194.6,4.58,206.78-26.19,6.9-37-38.65-47.83-61.73A448.92,448.92,0,0,1,1037,811.75Z"/><path class="cls-6" d="M850.68,1350.38c-45.45-56.44-74.38-122.7-80.65-184.7a1004.73,1004.73,0,0,1,140.71,126.18c28.72,31.1,142.55,141.9,108.85,175.87-19.07,19.23-51.46-14.56-72.54-28.93C911,1414.19,878,1384.32,850.68,1350.38Z"/><path class="cls-6" d="M1145.82,728.63c.42-50.19,13.89-99.43,31.08-146.59q22.63,106.34,45.28,212.68c5.38,25.28,4.88,92.3-36.94,64C1151.68,836,1145.52,764.28,1145.82,728.63Z"/><path class="cls-6" d="M897.53,1521.81c-34.79-40.64-58.52-89.23-77.83-138.64l184.86,140.7c22,16.72,68.46,70.94,15.37,76.16C977.33,1604.22,922.23,1550.67,897.53,1521.81Z"/><path class="cls-6" d="M1325.86,573.06c-1.48,1.59-1.74,6.69-2.24,8.8-.81,3.42-1.8,6.82-2.76,10.22q-3,10.53-5.88,21.11-5.76,21.13-11.07,42.4-10.64,42.51-19.47,85.45-2,9.87-4,19.76c-1.94,9.93-4,20.21-9.83,28.46C1237,836.41,1249.32,709,1253.73,693a276.62,276.62,0,0,1,25.34-61.72c5.88-10.47,14.63-20.2,22.13-29.53Q1313,587,1325.86,573.06Z"/><path class="cls-6" d="M990.87,1105c15.26,16.11,36.08,31.29,57.76,26.56,15.81-3.45,27.92-17.36,32.68-32.83s3.16-32.24-.68-48c-12.12-49.54-44.93-90.89-72-134.11-48.26-77.12-66.17-169.2-92.91-255.75C893.56,803.75,884.4,992.57,990.87,1105Z"/><path class="cls-6" d="M951.05,1288.72c18.49,12.26,42.19,22.36,62.25,12.87,14.63-6.92,23.29-23.19,24.45-39.34s-4.18-32.12-11.47-46.57c-22.95-45.54-64.23-78.44-100.32-114.47-64.39-64.27-102.57-150-148.11-228.27C788.41,1017.15,822,1203.19,951.05,1288.72Z"/><path class="cls-6" d="M1336.44,974.19c66.28-29.29,122.39-74.88,156.42-127.09a1003.85,1003.85,0,0,0-182.92,47.53c-39.8,14.45-191.78,60.64-177.43,106.29,8.12,25.84,52.4,10.69,77.72,7.59A448.6,448.6,0,0,0,1336.44,974.19Z"/><path class="cls-6" d="M1207.93,1389.45c58.91-42.21,104.54-98.28,127.19-156.34A1003.13,1003.13,0,0,0,1165.75,1317c-36,22.27-175.35,98.52-152,140.28,13.22,23.63,53.48-.24,77.63-8.45A448.29,448.29,0,0,0,1207.93,1389.45Z"/><path class="cls-6" d="M1351,870.67c45.41-21.4,84.49-54.23,120.13-89.59L1259,829c-25.21,5.69-85.86,34.2-42.66,60.34C1251,910.3,1318.7,885.87,1351,870.67Z"/><path class="cls-6" d="M1075.63,1523.91c-24.88,12-81.31,55.74-30.35,71.52,40.89,12.66,105.62-28.73,135.62-52,42.24-32.82,75.24-75.65,104.09-120.18Z"/><path class="cls-6" d="M1454.23,698.16l-4.09,1.92c-53.46,25-106.88,49.93-161.32,72.92-9.32,3.93-19,8-25.84,15.45-2.51,2.72-4.48,6.11-4.35,9.94.38,11.12,15.41,12.45,23.15,9.66,11.51-4.15,24.49-5.36,36.36-8.58,14.09-3.83,29.5-7.49,42.58-14.2a262,262,0,0,0,59.24-41.6c6.72-6.28,11.77-14.4,16.87-22C1442.28,713.58,1448.29,705.92,1454.23,698.16Z"/><path class="cls-6" d="M1123.41,1153.7c-16.74-1-35.65-5.56-43.49-20.37-5.73-10.8-3.61-24.56,3-34.86s17-17.54,28-23c34.49-17.18,74.34-18.42,112.48-23.9,68-9.76,129.87-44.35,192.85-71.14C1344.63,1062.93,1240.17,1160.3,1123.41,1153.7Z"/><path class="cls-6" d="M1086.56,1322.31c-18.88,1-40.65-1.89-51.25-17.54-7.74-11.42-7-27.12-.88-39.46s17-21.76,28.6-29.21c36.58-23.45,81.13-29.7,123.22-40.48,75.11-19.23,140.26-65.54,207.62-103.25C1323.6,1193.59,1218.31,1315.5,1086.56,1322.31Z"/><path class="cls-6" d="M1389.13,744.9c-6.57,6.73-14.53,11.77-23,15.87a239.45,239.45,0,0,1-23,9.3c-8.43,3.08-16.86,6.14-25.38,8.94-14.18,4.66-28.66,8.52-43.49,10.22q7.35-8.33,14.8-16.55c13.3-14.76,27.39-29,40.34-44.08,12.58-14.63,25.89-27.85,36.27-44.29,1.08-1.72,5.75-12.33.42-11.54-2.52.38-9.16,13.25-10.88,15.62q-11.47,15.84-24.39,30.54-9.62,10.94-20,21.17c-5.39,5.32-9.83,11-15,16.41q-12.84,13.44-25.14,27.38A205.86,205.86,0,0,1,1269,762c-1.22-42.42,9.29-84.11,19.64-124.92,1-3.86-5-5.2-6-1.36-3,11.94-6,23.89-8.76,35.9-4.91,21.64-8.91,43.56-10.4,65.73-.73,10.94-1.21,22.24-.13,33.18,1.49,15-1.49,23.45-11.16,35q-16.91,20.18-32.77,41.2a336.87,336.87,0,0,1-16.64-33.31,350.22,350.22,0,0,1-27-168.38c.15-1.66-1.69-3-3.2-3a3.19,3.19,0,0,0-3,3.2,347.46,347.46,0,0,0-.84,49.67,356.3,356.3,0,0,0,17.58,92.36c4.9,14.76,10.2,30.7,18,44.2,3,5.22,6.1,7.67,6,14.12-.34,19.7-17,36.93-27.24,52.33q-19.21,28.89-36.49,59-3.61,6.33-7.16,12.73-12.78-28.57-23.41-58a830.61,830.61,0,0,1-32.64-117.52,822.12,822.12,0,0,1-14.91-121.21c-.2-4-6.36-3.73-6.17.23q1.67,34.53,6.22,68.83a833.74,833.74,0,0,0,25.06,120.21q10.13,35.25,23.35,69.51c4.95,12.83,13.55,25.18,14.38,39.26.81,13.7-7.5,27.81-13.38,39.61a1027.71,1027.71,0,0,0-44,101.58c-18.8-16.22-33.27-36.6-46.53-57.46-27-42.48-53.51-86.27-70.73-133.76C939.24,872.92,931.9,822,929,771.2c-.23-4-6.4-3.73-6.17.23a654.15,654.15,0,0,0,10.28,86.25,424.37,424.37,0,0,0,21,74c9.4,24,21.11,47.12,33.81,69.56,12.39,21.88,25.45,43.5,39.25,64.52,6.11,9.31,12.3,18.61,19.4,27.21,6.68,8.11,13.34,14.21,17.15,24.26,3.63,9.56,1.22,20-1.9,29.62-4.81,14.78-9.38,29.63-13.53,44.62a801.67,801.67,0,0,0-19.24,88.09A669,669,0,0,1,822.6,997.66c-1.42-3.7-7.31-1.85-5.89,1.86a675,675,0,0,0,163.9,245.82q13.65,13,28,25.25c8.39,7.16,14.41,12.71,16.29,23.9,1.75,10.37-.78,21-1.73,31.45-3.67,40.24-3.91,80.68-2.83,121.06-1,.33-2,.68-3,1a302.7,302.7,0,0,1-48.57-29.6c-33.31-24.8-61.86-55.4-87-88.35-27.87-36.59-51.73-76-75.53-115.26-2.06-3.4-7.24,0-5.18,3.36,13.57,22.39,27.14,44.79,41.47,66.71,24.21,37,50.74,72.81,82.34,103.9A372,372,0,0,0,975.85,1431c9.13,6.23,18.72,12.82,28.78,17.48,20.62,9.54,17,36.53,18,55.42q2,37.77,5.29,75.47a97.17,97.17,0,0,1-16.11-6.3,182.7,182.7,0,0,1-32.93-20.75c-20.74-16.18-38.64-35.6-56.34-55q-31.62-34.59-63.22-69.19c-2.68-2.93-6.8,1.66-4.14,4.58,23.77,26,47.41,52.14,71.32,78,18.15,19.64,37,38.88,59.13,54.11,11,7.61,25.29,11.89,35,21.76,11.22,11.41,11,30.77,12.66,45.64.73,6.38,1.55,12.74,2.34,19.11q3-.45,6-.87c-.55-4.45-1.12-8.91-1.64-13.37-1.35-11.48-6.24-27-.4-37.73,4.62-8.5,14-12.55,22.71-15.51,14-4.74,27.36-11.87,40.19-19.1,13.17-7.42,25.89-15.61,38.27-24.27,24.88-17.42,48.35-36.73,71.77-56,3-2.5-.29-7.71-3.36-5.18-25.9,21.33-51.88,42.71-79.73,61.49a428.58,428.58,0,0,1-37.92,23c-12.58,6.71-25.88,13.72-39.93,16.69a46.35,46.35,0,0,1-17.43.27q-3.54-39.63-5.54-79.36c-.64-12.47-2.37-25.68-2-38.08.27-9.3,7-14.26,15.33-17.2,10.31-3.64,20.45-7.89,30.47-12.27a567.36,567.36,0,0,0,190-135.4c2.69-2.92-1.89-7.07-4.58-4.14A559,559,0,0,1,1026.47,1445q-.1-3.69-.2-7.4c-.75-35.14-.34-70.35,2.55-105.4,1.24-15-1-30.63,15.33-36.68,11.62-4.31,24.33-3.14,36.36-5.35a409.22,409.22,0,0,0,210.77-109.18c2.85-2.78-1.74-6.91-4.58-4.14a395.08,395.08,0,0,1-50.68,41.84,405.34,405.34,0,0,1-103.45,51.75,398.25,398.25,0,0,1-56.6,14.33c-8.85,1.55-17.87,3.13-26.86,3.46a46.59,46.59,0,0,1-11-.75,2.73,2.73,0,0,0-1.07-1.62c-.83-.64-1.65-1.3-2.48-2a829,829,0,0,1,28.91-122.08c4.09-13,6.93-28.41,20-35.58,12-6.55,27.48-2,40.14-2.54,35.22-1.58,69.66-11.16,102-24.77,35.5-14.92,68.79-34.41,101.94-53.86,3.43-2,.06-7.19-3.36-5.18-18.42,10.81-36.86,21.62-55.72,31.66-32,17-65.46,31.85-100.93,39.9-28.82,6.53-58.89,8.43-88,3.35a1019.89,1019.89,0,0,1,41.49-96.6c7.1-14.46,12.11-28.64,28.56-34.17,14-4.69,29.06-2.92,43.43-5.08,36.1-5.42,71-16.84,104.38-31.32,35-15.16,68.52-33.47,101.95-51.76,3.49-1.92.11-7.09-3.36-5.19-18.6,10.19-37.21,20.37-56.1,30-33,16.81-66.91,32-102.52,42.22-30.65,8.81-62.46,13.85-94.36,13q11.79-21.43,24.55-42.31c14.87-24.28,30.13-57.2,58.48-68.16,9.07-3.5,15.75-1.77,25.06-1,52.1,4.51,101.23-17.77,145.94-41.92,3.5-1.89.12-7.06-3.36-5.18-13,7-26.13,13.81-39.64,19.8-40.65,18-87.8,29.41-131.26,15.56a1,1,0,0,1-.1-.17c11-14.57,21.92-29.73,34.28-43.16,10.06-11,26-14.6,39.64-17.85,18.1-4.3,35.65-10.8,53.07-17.27,16-5.93,32-12.84,44-25.22C1396.49,746.2,1391.9,742.06,1389.13,744.9Z"/><ellipse class="cls-7" cx="1185.42" cy="1770.79" rx="1014" ry="52.22"/><path class="cls-8" d="M1645.27,1322.56c0,15.81-.65,31.38-1.89,46.59H1273.15c-1.24-15.21-1.89-30.78-1.89-46.59,0-48.3,1.77-94.17,7.41-135.46q1.17-8.55,2.58-16.84c13.23-78.23,42.5-137.86,103.78-162.89,4.23-1.75,8.61-3.3,13.15-4.69,17.57-5.41,37.49-8.25,60.08-8.25,23.11-.35,43.38,2,61.16,6.69q6.82,1.8,13.15,4.09c66.33,23.72,93.89,84.77,105.16,165q1.17,8.29,2.1,16.84C1644.39,1228.51,1645.27,1274.41,1645.27,1322.56Z"/><path class="cls-9" d="M1458.26,1009.84c-148.88,0-171.62,134.82-171.62,301.13q0,21.78,1.73,42.77h339.78q1.69-21,1.73-42.77c0-166.31-11.43-303.5-171.62-301.13Z"/><path class="cls-2" d="M1395.18,1071.14c5.78-5.65,13.57-6.78,19.2-12.45-7.78-5.32-17.21-2.9-25.69-1.38-8.74,1.57-16.82.94-25.58-.1-6.52-.77-13.07-1.56-19.62-1.8-10.76,12.1-19.58,26.34-26.76,42.4l2.7.35c7.18.92,14.37,1.42,21.56,2.15,8.8.89,17.08,4.61,25.63,7.3,14.55,4.56,29.36,7.69,44.39,6.53,11.64-.9,25.48-3.33,36.29-9.64,4.49-2.62,4-3.76-.2-6.41-5.75-3.64-12.27-5.58-18.43-7.71-7-2.43-14.07-4.63-21-7.37-4.32-1.71-9.52-3.44-12.91-7.51A3.32,3.32,0,0,1,1395.18,1071.14Z"/><path class="cls-2" d="M1611.31,1158a97.68,97.68,0,0,1,9.87,1.65c-3.78-22.63-9.16-43.42-16.78-61.85-1.25.37-2.48.74-3.67,1.14a101.3,101.3,0,0,0-13.9,5.4c-2.72,1.38-7.87,3.78-8.62,8-1.07,6.07,6.52,8.43,9.64,9.93,3.61,1.74,7.66,3.49,10.11,7.54,6.4,10.6-4,17-7.9,25.05C1597.05,1156.9,1604.17,1157.2,1611.31,1158Z"/><path class="cls-10" d="M1629.4,1262.19H1561V1070.76h-26v116.52h-62.83v30.52h-34.67v-69.36h-56.34v113.75h-54.17v-80.45h-32.79c-5.74,39.16-7.51,83-7.51,129.23q0,21.78,1.73,42.77h339.78q1.69-21,1.73-42.77C1629.88,1294.39,1629.76,1278.09,1629.4,1262.19Z"/><path class="cls-11" d="M1546.33,1272.59h83.27c-.06-3.48-.12-6.95-.2-10.4H1561V1070.76h-26v5.55h11.38Z"/><path class="cls-12" d="M1549,1326V1176.19H1535v11.09H1510v68h-91V1148.44h-20.59v144.27h-111.7q-.09,9.06-.1,18.26,0,21.78,1.73,42.77h339.78c.74-9.12,1.22-18.38,1.49-27.74Z"/><polygon class="cls-12" points="1398.44 1287.16 1398.44 1292.71 1394.65 1292.71 1394.65 1295.48 1549.04 1295.48 1549.04 1287.16 1398.44 1287.16"/><path class="cls-12" d="M1621.63,1326v27.74h6.52c.74-9.12,1.22-18.38,1.49-27.74Z"/><path class="cls-12" d="M1414.54,1156.15c1.49-1.49,3-3,4.49-4.43v-3.28h-20.59V1172C1403.48,1166.14,1409.45,1161.22,1414.54,1156.15Z"/><path class="cls-12" d="M1417.6,1160.07c-6,6-13.77,12-19.16,19.61v24.54q10.1-12.84,20.59-25.15v-20.4Z"/><path class="cls-12" d="M1419,1239.15v-23.07c-6.91,8.18-13.81,16.36-20.59,24.71v21.37C1405.26,1254.42,1412.17,1246.82,1419,1239.15Z"/><path class="cls-12" d="M1427,1255.25H1419v-8.76c-6.88,7.67-13.8,15.29-20.59,23.09v3.71H1427Z"/><rect class="cls-12" x="1432.75" y="1255.25" width="11.2" height="18.03"/><rect class="cls-12" x="1449" y="1255.25" width="14.81" height="18.03"/><rect class="cls-12" x="1467.06" y="1255.25" width="11.92" height="18.03"/><path class="cls-12" d="M1499.21,1257.19c-1.49,1.06-2.87-.31-3.18-1.94h-9.83v18h13.36v-16.36Z"/><path class="cls-12" d="M1521,1207.18q13.82-13,28-25.19v-5.8H1535v11.09H1510v29.78C1513.77,1213.7,1517.5,1210.46,1521,1207.18Z"/><path class="cls-12" d="M1549,1243v-26.09c-12.81,11.16-25.7,22.14-39,32.3v6.08h-3.62v18h9.79C1527,1262.92,1538,1252.9,1549,1243Z"/><path class="cls-12" d="M1523.45,1273.29H1549v-23.57C1540.45,1257.48,1531.9,1265.29,1523.45,1273.29Z"/><path class="cls-12" d="M1549,1210.17v-21.52q-11.41,9.87-22.57,20.25c-5.52,5.14-11,10.41-16.43,15.62v18.18C1523.32,1232.43,1536.21,1221.37,1549,1210.17Z"/><path class="cls-12" d="M1419,1208.52v-21.9q-10.5,12.47-20.59,25.49v21C1405.24,1224.81,1412.15,1216.68,1419,1208.52Z"/><path class="cls-13" d="M1549,1317.68H1286.71q.24,18.32,1.66,36.06h339.78c.74-9.12,1.22-18.38,1.49-27.74H1549Z"/><path class="cls-8" d="M1398.18,1002.68v360.26H1385V1007.37C1389.26,1005.62,1393.64,1004.07,1398.18,1002.68Z"/><path class="cls-8" d="M1639.83,1187.1H1278.67q1.17-8.55,2.58-16.84h356.48Q1638.9,1178.55,1639.83,1187.1Z"/><path class="cls-8" d="M1532.57,1005.21v357.73h-13.15V1001.12Q1526.25,1002.92,1532.57,1005.21Z"/><path class="cls-14" d="M1458.26,1009.84a203.83,203.83,0,0,0-37.92,3.35q-18.55,43.83-36.53,88.06c-32.39,79.48-63.87,159.59-96.33,239,.25,4.52.53,9,.89,13.47h29.1c26.42-68.11,51.09-137.4,80.37-203.63,21.35-48.28,50.61-91.35,71.3-140.2C1465.59,1009.82,1462,1009.79,1458.26,1009.84Z"/><path class="cls-14" d="M1595,1078.41c-12.45-22.08-29.27-39.65-52-51.48q-13.1,31-26.4,61.94c-38.07,88.41-77.08,176.18-114.75,264.87h77.46C1515.47,1260.34,1561.56,1173.47,1595,1078.41Z"/><rect class="cls-12" x="1294.37" y="1191.18" width="3.66" height="10.4"/><rect class="cls-12" x="1302.36" y="1191.18" width="3.66" height="10.4"/><rect class="cls-12" x="1310.35" y="1191.18" width="3.66" height="10.4"/><rect class="cls-12" x="1318.34" y="1191.18" width="3.66" height="10.4"/><rect class="cls-12" x="1294.37" y="1208.67" width="3.66" height="10.4"/><rect class="cls-12" x="1302.36" y="1208.67" width="3.66" height="10.4"/><rect class="cls-12" x="1310.35" y="1208.67" width="3.66" height="10.4"/><rect class="cls-12" x="1318.34" y="1208.67" width="3.66" height="10.4"/><rect class="cls-12" x="1294.37" y="1226.16" width="3.66" height="10.4"/><rect class="cls-12" x="1302.36" y="1226.16" width="3.66" height="10.4"/><rect class="cls-12" x="1310.35" y="1226.16" width="3.66" height="10.4"/><rect class="cls-12" x="1318.34" y="1226.16" width="3.66" height="10.4"/><rect class="cls-12" x="1294.37" y="1243.66" width="3.66" height="10.4"/><rect class="cls-12" x="1302.36" y="1243.66" width="3.66" height="10.4"/><rect class="cls-12" x="1310.35" y="1243.66" width="3.66" height="10.4"/><rect class="cls-12" x="1318.34" y="1243.66" width="3.66" height="10.4"/><rect class="cls-12" x="1294.37" y="1261.15" width="3.66" height="10.4"/><rect class="cls-12" x="1302.36" y="1261.15" width="3.66" height="10.4"/><rect class="cls-12" x="1310.35" y="1261.15" width="3.66" height="10.4"/><rect class="cls-12" x="1318.34" y="1261.15" width="3.66" height="10.4"/><rect class="cls-12" x="1294.37" y="1278.64" width="3.66" height="10.4"/><rect class="cls-12" x="1302.36" y="1278.64" width="3.66" height="10.4"/><rect class="cls-12" x="1310.35" y="1278.64" width="3.66" height="10.4"/><rect class="cls-12" x="1318.34" y="1278.64" width="3.66" height="10.4"/><path class="cls-8" d="M1936.57,1741.92a28,28,0,0,1-19.69,8.85c-4.85.08-5.28,3.66-5.69,4.63s5.07,3.42,16.18,2.89,7.09-3,20.52-2.73c.84,0,.25,2.06.25,2.06s10.4-.29,11-.32,1.49-2.58,1.69-6-2.63-10-2.63-10Z"/><path class="cls-8" d="M2039.13,1741.92a28,28,0,0,1-19.7,8.85c-4.85.08-5.27,3.66-5.68,4.63s5.06,3.42,16.18,2.89,7.09-3,20.51-2.73c.85,0,.25,2.06.25,2.06s10.41-.29,11-.32,1.49-2.58,1.68-6-2.63-10-2.63-10Z"/><path class="cls-8" d="M1498.45,1767.28c0,3.08-13.65,5.58-30.48,5.58s-30.48-2.5-30.48-5.58,13.65-5.57,30.48-5.57S1498.45,1764.21,1498.45,1767.28Z"/><path class="cls-8" d="M1853.78,1341.23c-1.08-5.59-4.37-11-10.08-12.76-6.49-2-12.92,1.32-17.23,6.12-4.91,5.48-7.86,12.73-10.52,19.51a139.87,139.87,0,0,0-6.5,22.33c-7,33.59-15.42,156.25-11.8,163.11,2.58,4.89,16.63,3,22.58.91a6.81,6.81,0,0,0,2.23-1.3c.33,1.74.72,3.46,1.22,5.17,1,3.36,5.56,2.46,5.85-.8.77-8.72-.17-17.59-.16-26.35,0-8.48.17-17,.61-25.45a368.85,368.85,0,0,1,6.53-52c3.38-17.19,8.6-33.86,12.8-50.85C1853,1373.86,1856.77,1356.65,1853.78,1341.23Z"/><path class="cls-8" d="M1685.18,1533.6c-5.3,8.49-6.57,18.94-8.18,28.68l-4.77,28.82c-3.24,19.58-5.93,39.26-8.83,58.9s-5.79,39.29-8.68,58.93q-2.15,14.47-4.27,29-1.07,7.23-2,14.48c-.65,5.16-1.58,10.07,2.44,14.06a5.38,5.38,0,0,0,6.36.82c4.58-2.46,5.28-7.07,6.07-11.82.85-5.15,1.63-10.31,2.37-15.48q2.1-14.49,4.19-29,4.24-29.49,8.51-59c2.83-19.63,5.85-39.24,8.34-58.92l3.66-29c1.23-9.8,3-20.13.32-29.77a3.07,3.07,0,0,0-5.54-.73Z"/><path class="cls-8" d="M1818.8,1534.33c-2.66,9.64-.91,20,.33,29.77l3.66,29c2.48,19.68,5.5,39.29,8.34,58.92s5.67,39.32,8.51,59q2.08,14.49,4.18,29c.7,4.82,1.41,9.64,2.2,14.45.84,5,1.33,10.21,6.24,12.85a5.41,5.41,0,0,0,6.37-.82c3.74-3.72,3.18-8.15,2.56-13-.65-5.18-1.36-10.34-2.12-15.51l-4.26-29q-4.35-29.46-8.69-58.93c-2.89-19.64-5.58-39.32-8.82-58.9l-4.77-28.82c-1.61-9.74-2.88-20.19-8.19-28.68a3.07,3.07,0,0,0-5.54.73Z"/><rect class="cls-8" x="1463.26" y="1429.21" width="11.34" height="337.6" rx="5.21"/><path class="cls-15" d="M1933.05,1315.23c-1.43,3.76-14.94,182-7.74,215.21s4.75,205.57,4.75,205.57,5.54,8.87,19.86,8.59,15.22-7.86,15.22-7.86,10.53-65.8,13.25-103-4.63-114.9-4.63-114.9-1.26-67.64,10.34-92,23.28-72.5,21.56-85S1950.2,1270,1933.05,1315.23Z"/><path class="cls-16" d="M1968,1322.86c0,65.4,17.3,70.05,17.3,70.05l12.88,113.72s31.53,228.92,34.32,233c4.85,7,9.59,5.8,21.37,5.48,8.91-.25,10.52-7.15,10.52-7.15,3.25-68.68,4.88-105.9,0-135.11-2.25-13.56-10.85-63.68-12.62-96.19-5.61-103.18,6.35-116.88,7.21-142,1.06-31-8.63-60.11-20.86-71.53-65.87-61.59-73.88,20.2-67.7,24S1968,1302.82,1968,1322.86Z"/><path class="cls-17" d="M1863.78,1126.73c-12.25-9-28.86,2.52-36.52,34.66s1.84,62.46-13.29,90.46-54,42.44-54,42.44-2.5,1.24-5.74,3.32c.93,5.33,7.38,9.67,11.83,12.31,5.49-1.85,9.25-2.55,16.86-4.66,16.74-4.65,43.25-7.41,84.89-60S1886.51,1143.53,1863.78,1126.73Z"/><path class="cls-7" d="M1763.06,1293c-2,.83-3.08,1.25-3.08,1.25s-2.5,1.24-5.74,3.32c.93,5.33,7.38,9.67,11.83,12.31,3.15-1.06,5.73-1.74,8.79-2.53C1769.6,1303.79,1765.14,1298.92,1763.06,1293Z"/><path class="cls-18" d="M1763.6,1308.2a26.92,26.92,0,0,1-7.37-11.83c-4.77,2.86-11.38,5.89-14.07,12.14s-.32,14.61,3.67,15c2.33.2,2.61-4.94,3.82-7.62,1.91-4.22,8.35-4.37,14.73-7C1764.12,1308.63,1763.85,1308.43,1763.6,1308.2Z"/><path class="cls-19" d="M1840.33,1109.93l6,16a39.86,39.86,0,0,0-2,18.25c1.33,9.92,16.13,57,30,46.39s4.88-69.74,4.88-70.72,6.14-14.87,6.14-14.87l-19,4.3-10.58-12.9S1834.13,1112.77,1840.33,1109.93Z"/><path class="cls-7" d="M1885.33,1105l-19,4.3-3.15-3.84a25.37,25.37,0,0,1-3.91,8.87c-3.38,4.47-8.21,8.62-13.71,9.45l.81,2.17a39.86,39.86,0,0,0-2,18.25c1.33,9.92,27.15,83.25,41,72.66s-6.14-96-6.14-97S1885.33,1105,1885.33,1105Z"/><path class="cls-20" d="M1846.33,1125.92s-8.7,12.13,0,41.57,28.23,49.28,44.44,72.44,31.42,53.58,33.41,74.92a290.52,290.52,0,0,1,.44,42.26s22.41,7.46,33.46.8c6.13-3.7.33-34.44.33-34.44s12.41,32.06,33.24,36.53,71.45-13.4,71.45-13.4-15.88-45.15-30.26-89.8-22.49-79.51-45.16-111.64c-17.86-25.32-51.14-43.79-76.9-44.16-33.24-.47-44.49,8.27-44.49,8.27s8.93,57.12,23.15,97.91c.76,2.16-29.34-29.93-38.77-60.2C1848.62,1140.38,1846.33,1125.92,1846.33,1125.92Z"/><path class="cls-13" d="M2032.84,1256.8c-6.18-19.15-11.19-36.5-16.69-52.61,4,30,2.43,61.24-13.57,87.38-16.8,27.42-48.3,32-77.52,38.22.45,15.19-.44,27.32-.44,27.32s22.41,7.46,33.46.8c6.13-3.7.33-34.44.33-34.44s12.41,32.06,33.24,36.53,71.45-13.4,71.45-13.4S2047.22,1301.45,2032.84,1256.8Z"/><path class="cls-18" d="M1862.27,1085.46c0,12.53-15.75,32.49-24,32.49s-9.07-11.13-9.07-23.66,5.35-21.73,13.58-21.73S1862.27,1072.92,1862.27,1085.46Z"/><path class="cls-8" d="M1848.56,1080.75c6.18,1,3.92,12.61,5.53,14.12s2.27-2.78,4.16-2.62a3.35,3.35,0,0,1,2.47,1.42,26.81,26.81,0,0,0,1.55-8.21c0-12.54-11.45-14.72-19.46-12.9-7.14,1.62-13.19-1.28-11.29,7.9C1833.57,1082.85,1844.24,1080,1848.56,1080.75Z"/><path class="cls-17" d="M1892.57,1124.51c13.79-21.5,69.79-16.29,79.1,29.42s-.19,94.32-26.37,126.1-77,49.92-79.09,50.44-17.13,6.46-17.06,11.21a44.19,44.19,0,0,1-.24,4.65,1.92,1.92,0,0,1-3.49.93l-4.47-6.4a9.76,9.76,0,0,1,.22-11.43l7.71-5s7.72-5.23,13.71-10.21c18.63-15.51,52.73-43.52,54.8-73.78S1877.06,1148.68,1892.57,1124.51Z"/><path class="cls-7" d="M1862.85,1314l-.26.22c-6,5-13.71,10.21-13.71,10.21l-7.71,5a9.76,9.76,0,0,0-.22,11.43l4.47,6.4a1.92,1.92,0,0,0,3.49-.93,44.19,44.19,0,0,0,.24-4.65c-.07-4.75,15-10.68,17.06-11.21.34-.08,2-.66,4.76-1.71C1867.24,1324.61,1865,1319.4,1862.85,1314Z"/><path class="cls-18" d="M1856.31,1319.09c-4,3-7.43,5.31-7.43,5.31l-7.71,5a9.76,9.76,0,0,0-.22,11.43l4.47,6.4a1.92,1.92,0,0,0,3.49-.93,44.19,44.19,0,0,0,.24-4.65c-.05-3.35,7.4-7.27,12.53-9.49A33.2,33.2,0,0,1,1856.31,1319.09Z"/><path class="cls-17" d="M1846.33,1125.92s-1.94,23,1.7,33.3,4.3,14.22,4.3,14.22h7.61l1.65,16.54,48,46.31s-25.47-38.37-32.75-47.3-21.25-35.49-25.47-48C1847.37,1129.28,1846.33,1125.92,1846.33,1125.92Z"/><path class="cls-17" d="M1866.29,1109.27s11,17.37,14.65,27.62a112.14,112.14,0,0,0,6.78,15.88l-4.47,6.78,8.32,14.62,8.89,48.89a41.57,41.57,0,0,1-12-18c-3.1-10-10.75-38.09-17.69-71C1867.73,1119.75,1866.29,1109.27,1866.29,1109.27Z"/><path class="cls-15" d="M1774.22,1261.58c-2.87-5.47-9-8.54-11.64-14-1.58-3.29-.65-7-1-10.55a32.08,32.08,0,0,0-3.12-10.56c-1.4-3-3.51-7.86-6.51-10.67a4.35,4.35,0,0,0-6.22-2,1.34,1.34,0,0,0-.78.64c-.11.12-.21.24-.31.37a17.47,17.47,0,0,0-1.57,18.52c1.17,2.3,2.11,3.4,2.14,6.14,0,2.37-.13,4.76-.19,7.13-.1,3.8-.3,7.62-.25,11.43.09,6.17,1.19,13,6.44,17,5.43,4.09,13.53,3.37,19.51.8S1776.94,1266.74,1774.22,1261.58Z"/><path class="cls-18" d="M1701.19,1271.11s-16,1.88-25.8,25.15-4.66,44.65-12.74,72.88c-5.87,20.51-32.76,43.4-52.92,42.34-8.62-.45-10.62-2.31-15.58-.32s-9.08,9.55-9.08,9.55h23.66c9.6,0,39.06-.63,58.57-12.2s39.34-40.36,45.3-54.91S1724.19,1271.66,1701.19,1271.11Z"/><path class="cls-19" d="M1584.85,1480.72c-1.93,1.17-24.74,11.47-24.74,25.36s34.4,127,41.68,154.81,17.24,88.47,19.18,89.26c5.62,2.29,8.67,2.66,8.67-1.31s12.53-105.73,10.52-128.6c-6-67.68-24.48-76.64-24.48-82.83s129.32-5.54,161.42-18.76c22.49-9.26,24.23-43.66,12.57-62.18C1755.85,1402.74,1584.85,1480.72,1584.85,1480.72Z"/><path class="cls-18" d="M1581.91,1497.33c-9.43,9.93-16.16,59.11-19.32,111.09-2.06,33.95-10.25,142.35-10.25,142.35s-1.49,8.44,7.77,3.15,34.23-101.27,43.24-129.11c10.91-33.74,11.12-72.65,20.57-85.14,7.44-9.82,139.91,4.61,161.75-11.92s9.29-15-2-40.19,29.08-47.12,3.94-49.76S1589,1489.83,1581.91,1497.33Z"/><path class="cls-21" d="M1810.76,1471q0,4.69-.28,9.16c-.64,9.51-2.47,18.15-5.7,25.2a40.72,40.72,0,0,1-2.61,4.85c-.88,1.4-1.75,2.7-2.63,3.93C1789,1529,1778.67,1532,1761,1533.83c-3.33.34-6.93.65-10.85,1l-3.58.32c-2.87.25-15.7.59-31.39.94l-7.65.17c-9.26.19-19.09.37-28.18.54l-8.06.15-27.89.48s-8.48-36-38.25-47.22c-20.83-7.87-28-4.51-28.43-4.3a219.5,219.5,0,0,1,22.86-13.29c1.5-.76,3-1.54,4.66-2.31,4.12-2,8.62-4.06,13.41-6.06,2.05-.84,4.15-1.68,6.29-2.5l1.71-.64c7.72-2.88,16.81-5.41,26.13-7.92l5.14-1.38c5.19-1.39,10.39-2.8,15.4-4.26h0c1.81-.53,3.57-1.07,5.31-1.61h0c2.72-.86,5.34-1.73,7.85-2.64,2.23-.82,4.37-1.66,6.4-2.53,5.78-2.49,10.64-5.27,14-8.49a18,18,0,0,0,3.5-4.43c.09-.16.18-.32.26-.48,2.36-4.72,3.73-11,4.39-17.62.21-2.29.35-4.61.42-6.94a122.89,122.89,0,0,0-.6-16.09h0c-.17-1.75-.39-3.42-.63-5-.35-2.34-.76-4.41-1.2-6.15h0c-.74-2.93-1.58-4.88-2.38-5.42a10.43,10.43,0,0,1-1.73-1.67,45.62,45.62,0,0,1-9.18-19,26.73,26.73,0,0,1-.51-5.2h0a19.69,19.69,0,0,1,.71-5.23c.6-2.11-15.76-3-28.93-15.7a8.11,8.11,0,0,1-2.22-3.09,7.31,7.31,0,0,1,.06-4c.41-1.74,1.12-3.94,1.86-7.06.89-3.81,1.83-7.22,2.85-10.29.35-1.07.71-2.1,1.09-3.09a46.7,46.7,0,0,1,5-9.8,33,33,0,0,1,3.5-4.32c5.41-5.62,12.78-9.12,23.57-12.4,5.53-1.68,20.67,6.45,21.34-2.82s7.43,4.69,7.43,4.69l17.54-3s1.93-5.86,11.91-5.28c10.91.66,21.28,1.86,29.87,7.93a34.68,34.68,0,0,1,7.08,6.7,45.4,45.4,0,0,1,4.58,7c.67,1.27,1.32,2.61,1.93,4a.36.36,0,0,1,0,.09c.27.63.52,1.27.76,1.91a46.18,46.18,0,0,1,2.5,15.74c0,2.38-.13,4.81-.37,7.28-.32,3.25-.81,6.58-1.44,10-.3,1.64-.64,3.29-1,4.94-.32,1.48-.65,3-1,4.45h0c-1.47,6.18-3.19,12.46-4.84,18.76-1,3.84-2,7.68-2.89,11.48a154.91,154.91,0,0,0-3.25,17.88c-.25,2.37-.42,4.7-.48,7h0a50.25,50.25,0,0,0,2.75,19c.05.16.11.3.16.45,1.09,2.81,2.11,5.7,3.07,8.65a196,196,0,0,1,5.63,21.12q.86,4.11,1.54,8.22A167.45,167.45,0,0,1,1810.76,1471Z"/><path class="cls-19" d="M1703.9,1270a11.54,11.54,0,0,0,2.74,7.21c2.6,3.32,6.11,4.8,10.16,5.65,7.25,1.5,14.94,1.06,22.25.23a46.28,46.28,0,0,0,23.48-10c4-3.16,7.51-7,12-9.35-4.5-.81-13.92-1-18.41-1.24-10-.59-8-26.3-8-26.3h-23.23s3.14,12.57,2.48,21.83-16.3,9.11-21.67,11.25Z"/><path class="cls-18" d="M1750.75,1226.91c3.43,12,2.71,23.8-4.86,26s-21.25-8.16-26.45-19.48c-8.49-18.45,3.83-22.09,11.4-24.26S1747.32,1214.93,1750.75,1226.91Z"/><path class="cls-15" d="M1728.9,1197.64c-11.43.33-22.13,8.75-25.27,19.71a20.94,20.94,0,0,0-.71,8.58,18.09,18.09,0,0,0,.83,3.62c.46,1.31,1.86,2.84,2.09,4.12.51,2.78-3.38,4.81-4.73,6.89a17.17,17.17,0,0,0-2.57,7.25c-1,8.18,4.37,17.32,12.07,20.52-.35,2.49-3.17,6.09-3.79,7.86a18.79,18.79,0,0,0-.68,10.29,15.36,15.36,0,0,0,11,11.45,12.92,12.92,0,0,0,13.92-6c3-5.25.59-10.77-1.34-15.88-1.36-3.61-2-5.9,1-8.81,2-1.91,4-3.46,5-6.14,2.25-6.13-1-11.92-4.44-16.8-3.71-5.3-7.26-12.28-2.93-18.4,4.1-5.78,11.22-8.23,17.45-8,1.69,0,5.12,1.37,5-.33C1750.27,1206.16,1740.23,1197.33,1728.9,1197.64Z"/><g class="cls-22"><path class="cls-23" d="M1800.82,1277.44l-.92.5c-7,3.79-14.82,6.53-21.94,9a155.13,155.13,0,0,1-17,4.73,161.72,161.72,0,0,1-24.9,3.41c-18.22,1.09-40.49,0-57.45-9.08a33,33,0,0,1,3.5-4.32c17.61,6.82,38.7,7,56.45,5.27a158.4,158.4,0,0,0,28.23-5.4c3.55-1,7-2.14,10.52-3.37a125.43,125.43,0,0,0,13.64-6l2.82-1.4A34.68,34.68,0,0,1,1800.82,1277.44Z"/><path class="cls-23" d="M1808.21,1290.48l-.08,0c-8.52,5.35-19.59,8.37-28.69,10.94a190.27,190.27,0,0,1-20.6,4.59c-5.37.88-10.77,1.56-16.18,2-23.64,1.94-48-.52-70.13-9.19.35-1.07.71-2.1,1.09-3.09,22.45,4.79,45.22,7.36,68.2,5.48q8.75-.7,17.39-2.26,9.29-1.68,18.37-4.28c5.71-1.64,11.33-3.58,16.87-5.69,3.55-1.35,7.1-3.08,10.72-4.45l.23-.08c.67,1.27,1.32,2.61,1.93,4a.36.36,0,0,1,0,.09Q1807.82,1289.54,1808.21,1290.48Z"/><path class="cls-23" d="M1812.93,1312.49c-.9.37-1.79.71-2.67,1.06l-.2.08a179.1,179.1,0,0,1-20.86,6.85,210.88,210.88,0,0,1-29.39,5.45c-4.77.57-9.56,1-14.37,1.26a324.18,324.18,0,0,1-49.66-.82c-9.19-.85-20-1.08-28-6.12a7.31,7.31,0,0,1,.06-4c4.54,2.76,9.94,3.48,15.32,3.93,6.79.56,13.62.72,20.43,1a352.05,352.05,0,0,0,43.82-.4q6-.45,12-1.22a212.64,212.64,0,0,0,29-5.62,178.58,178.58,0,0,0,19.18-6.33c1-.42,2.1-.87,3.14-1.34l1.65-.77C1812.62,1307.86,1812.83,1310.22,1812.93,1312.49Z"/><path class="cls-23" d="M1812.67,1321.64a74,74,0,0,1-1.37,7.6c-1.15-.3-2.31-.56-3.48-.8-.32,1.48-.65,3-1,4.45h0c-5.08,2.13-10.21,4.16-15.39,6A228.93,228.93,0,0,1,1755.2,1349c-17.47,3.21-38.64,6-56.49.47a26.73,26.73,0,0,1-.51-5.2c7.83,1.92,16.16,2,24.2,1.7a183.94,183.94,0,0,0,35.27-4.77,249.67,249.67,0,0,0,33.4-10.27c3-1.17,6.06-2.4,9.07-3.67,2.76-1.17,5.51-2.37,8.26-3.58l.42-.19C1810.09,1322.93,1811.37,1322.28,1812.67,1321.64Z"/><path class="cls-23" d="M1802,1351.66c-1,3.84-2,7.68-2.89,11.48-2.14,1-4.29,2-6.48,2.87a151.23,151.23,0,0,1-34.33,9.69,145.06,145.06,0,0,1-46.27-.14h0c-.74-2.93-1.58-4.88-2.38-5.42a10.43,10.43,0,0,1-1.73-1.67,152,152,0,0,0,49-.87,145.75,145.75,0,0,0,32.32-9.7C1793.51,1356,1797.8,1353.91,1802,1351.66Z"/><path class="cls-23" d="M1795.83,1381c-.25,2.37-.42,4.7-.48,7h0c-13.16,5-28.14,6.33-41.9,5.93-13.25-.38-27.07-2.4-39.62-7.25h0c-.17-1.75-.39-3.42-.63-5,13.27,3,26.48,5.3,40.25,5.22C1768,1386.84,1781.77,1383.88,1795.83,1381Z"/><path class="cls-23" d="M1801.33,1416.16c-2.59.51-5.11.94-7.45,1.36a147.22,147.22,0,0,1-32.81,2,149.78,149.78,0,0,1-47.06-9.83c.21-2.29.35-4.61.42-6.94a152.29,152.29,0,0,0,47.48,8.21,154.92,154.92,0,0,0,31.92-3c1.43-.28,2.85-.59,4.27-.91.05.16.11.3.16.45C1799.35,1410.32,1800.37,1413.21,1801.33,1416.16Z"/><path class="cls-23" d="M1808.5,1445.5c-4.39.65-8.79,1.09-13,1.48a188.67,188.67,0,0,1-37.57-.37,175,175,0,0,1-36.76-8.14,108.89,108.89,0,0,1-15.28-6.2,18,18,0,0,0,3.5-4.43c16.16,6.74,34.15,10,51.22,11.43a187.41,187.41,0,0,0,34.89-.26c3.85-.4,7.68-1,11.49-1.73Q1807.82,1441.39,1808.5,1445.5Z"/><path class="cls-23" d="M1810.76,1471q0,4.69-.28,9.16l-1.28.11a103.87,103.87,0,0,1-21-.79c-13.9-1.72-27.48-5.08-41-8.67s-27.2-7.51-40.08-13.26c-7.76-3.47-15.74-8-21.66-14.24,2.23-.82,4.37-1.66,6.4-2.53,17.38,12,37.66,17.53,58.38,22.53,12.82,3.1,25.74,6.14,38.89,7.4A149,149,0,0,0,1810.76,1471Z"/><path class="cls-23" d="M1804.78,1505.34a40.72,40.72,0,0,1-2.61,4.85c-.88,1.4-1.75,2.7-2.63,3.93a50.7,50.7,0,0,0-9.69-7.14c-14.91-8.62-32.17-10.7-48.79-13.87-16.82-3.2-32.68-8.31-46.43-18.82a76.45,76.45,0,0,1-22.35-26.75c1.81-.53,3.57-1.07,5.31-1.61h0c7.77,10.53,17.28,19.84,28.62,26.49,16.07,9.44,34.44,11.41,52.47,14.47,15.83,2.67,31.69,6.9,44.46,17.08C1803.71,1504.41,1804.26,1504.87,1804.78,1505.34Z"/><path class="cls-23" d="M1761,1533.83c-3.33.34-6.93.65-10.85,1-.45-1.14-.94-2.27-1.49-3.39a60.52,60.52,0,0,0-10.23-14.42c-8.86-9.4-19.89-16.24-31.12-22.43-20.19-11.13-43-21.29-55.53-41.4l5.14-1.38c17.2,18.52,41.55,27.34,63.3,39.53,11.42,6.4,22.1,14.08,30.23,24.45C1754,1520.29,1758.55,1527,1761,1533.83Z"/><path class="cls-23" d="M1715.13,1536.08l-7.65.17a431,431,0,0,0-54.42-47.84c-10.59-7.72-21.78-14.49-32.5-22-1-.69-2-1.41-3-2.17,2.05-.84,4.15-1.68,6.29-2.5,2.51,1.66,5.12,3.19,7.71,4.72a347.71,347.71,0,0,1,30.61,20A309.26,309.26,0,0,1,1715.13,1536.08Z"/><path class="cls-23" d="M1679.3,1536.79l-8.06.15a65.35,65.35,0,0,0-6.41-13.09c-6.23-9.85-14.86-18-24.22-24.89-9.7-7.12-20.23-12.93-30.65-18.91a47.42,47.42,0,0,1-10.43-7.44c1.5-.76,3-1.54,4.66-2.31,5.85,4.76,13.89,7.77,19.94,11a179.14,179.14,0,0,1,28.72,18.59,87.15,87.15,0,0,1,21.24,24.91A65.7,65.7,0,0,1,1679.3,1536.79Z"/></g><path class="cls-18" d="M1790.45,1271.64c-4.94-1-19.87-.05-28.14,20.09-9.58,23.35,16.38,102.09-32.9,141-7,5.51-14.44,4.28-17.48,6.46-3.47,2.48-5,8.58-4.17,11.68.39,1.55,1.1,1.83,2,.54,1.32-1.82,4.53-4.86,11.2-4.48,10.34.58,24.38-8.93,36.55-19.56,20.84-18.19,34.68-40.69,40.64-55.24,5.27-12.88,15.41-39.33,16.15-53.14.82-15.36-3.76-37.18-19.14-45.6A16.88,16.88,0,0,0,1790.45,1271.64Z"/><path class="cls-21" d="M1814.64,1315.26c0,1.1,0,2.18-.09,3.22,0,.87-.13,1.8-.25,2.77l-.06.47c-.29,2.27-.75,4.78-1.35,7.44-1.18-.31-2.38-.58-3.59-.82a74.37,74.37,0,0,0-7.91-1.23,86.57,86.57,0,0,0-12.91-.37,158.16,158.16,0,0,0-18.57,1.81,41.25,41.25,0,0,0-9.68,2.61c-.13-1.84-.27-3.67-.39-5.44-.06-.82-.13-1.63-.18-2.44-.08-1-.14-2-.21-3,0-.42,0-.84-.07-1.24-.33-4.88-.55-9.44-.54-13.55V1305c0-1,0-1.88.06-2.77,0-1.62.15-3.15.32-4.59a28.66,28.66,0,0,1,1.73-7.55l0-.11c.2-.47.4-1,.61-1.41.58-1.33,1.2-2.56,1.85-3.72a39,39,0,0,1,3.55-5.41c8.42-10.65,18.91-11.11,23-10.29a20,20,0,0,1,1.94.53,18.17,18.17,0,0,1,2.94,1.3,29.49,29.49,0,0,1,6.31,4.73c.52.51,1,1,1.5,1.58a35.66,35.66,0,0,1,3.93,5.34c.13.2.25.41.37.61.68,1.14,1.29,2.31,1.86,3.51l0,.1c.31.62.6,1.28.87,1.92.37.9.73,1.82,1.06,2.74a60.19,60.19,0,0,1,2.09,7.22c.43,1.9.78,3.79,1,5.69a70.72,70.72,0,0,1,.68,7.27C1814.62,1312.92,1814.64,1314.11,1814.64,1315.26Z"/><g class="cls-24"><path class="cls-23" d="M1806.94,1283.27a105.87,105.87,0,0,0-14.35.07c-10.56.7-20.46,3.75-30.85,5.25h-.14c.58-1.33,1.2-2.56,1.85-3.72,9.43-4.56,20.7-6.05,31-6.91,2.34-.2,5.21-.5,8.24-.65a35.66,35.66,0,0,1,3.93,5.34C1806.7,1282.86,1806.82,1283.07,1806.94,1283.27Z"/><path class="cls-23" d="M1812.86,1298.76c-6.58-.19-13.36.76-19.6,1.19-11.67.83-23.18,2.28-34.42,5.59V1305c0-1,0-1.88.06-2.77,9.6-7.28,23.8-7.94,35.3-9.23,4.53-.52,10.69-1.58,16.57-1.49A60.19,60.19,0,0,1,1812.86,1298.76Z"/><path class="cls-23" d="M1814.64,1315.26c0,1.1,0,2.18-.09,3.22,0,.87-.13,1.8-.25,2.77l-.06.47c-3.15-.74-6.27-1.74-9.48-2.35a67,67,0,0,0-15.36-1,151.27,151.27,0,0,0-29.74,4.87c-.08-1-.14-2-.21-3,9.72-4.11,19.1-7.57,30-8.43C1797,1311.31,1807.17,1311.47,1814.64,1315.26Z"/></g><path class="cls-25" d="M1807,1437.28a196,196,0,0,0-5.63-21.12c-.08-.26-.17-.51-.26-.76-2.65,13.14-5.64,26.21-10.9,38.59-8.31,19.58-22.46,35-40.78,45.78a138.24,138.24,0,0,1-64.37,18.49c-17.07.55-34.18-2.24-51.25-3a84.07,84.07,0,0,1,9.58,22.12l27.89-.48,8.06-.15c9.09-.17,18.92-.35,28.18-.54l7.65-.17c15.69-.35,28.52-.69,31.39-.94l3.58-.32c3.92-.34,7.52-.65,10.85-1,17.72-1.85,28-4.8,38.59-19.71.88-1.23,1.75-2.53,2.63-3.93a40.72,40.72,0,0,0,2.61-4.85c3.23-7,5.06-15.69,5.7-25.2q.32-4.47.28-9.16a167.45,167.45,0,0,0-2.26-25.48Q1807.81,1441.39,1807,1437.28Z"/><rect class="cls-7" x="1379.01" y="1437.16" width="175.99" height="8.76" rx="4.02"/><rect class="cls-8" x="1680.13" y="1530.66" width="149.39" height="17.77" rx="8.16"/><path class="cls-8" d="M1118.64,1341.23c1.08-5.59,4.38-11,10.09-12.76,6.49-2,12.92,1.32,17.22,6.12,4.92,5.48,7.87,12.73,10.52,19.51a138.85,138.85,0,0,1,6.5,22.33c7,33.59,15.43,156.25,11.81,163.11-2.59,4.89-16.64,3-22.58.91a6.76,6.76,0,0,1-2.24-1.3c-.33,1.74-.72,3.46-1.22,5.17-1,3.36-5.56,2.46-5.84-.8-.77-8.72.16-17.59.15-26.35,0-8.48-.16-17-.6-25.45a368.87,368.87,0,0,0-6.54-52c-3.37-17.19-8.6-33.86-12.8-50.85C1119.41,1373.86,1115.66,1356.65,1118.64,1341.23Z"/><path class="cls-8" d="M1287.25,1533.6c5.3,8.49,6.57,18.94,8.18,28.68l4.77,28.82c3.24,19.58,5.93,39.26,8.82,58.9s5.79,39.29,8.69,58.93q2.13,14.47,4.27,29,1.07,7.23,2,14.48c.66,5.16,1.58,10.07-2.43,14.06a5.38,5.38,0,0,1-6.36.82c-4.59-2.46-5.29-7.07-6.08-11.82-.85-5.15-1.62-10.31-2.37-15.48q-2.09-14.49-4.18-29-4.26-29.49-8.51-59c-2.84-19.63-5.86-39.24-8.34-58.92l-3.66-29c-1.24-9.8-3-20.13-.33-29.77a3.08,3.08,0,0,1,5.55-.73Z"/><path class="cls-8" d="M1153.62,1534.33c2.66,9.64.91,20-.32,29.77l-3.66,29c-2.49,19.68-5.51,39.29-8.34,58.92s-5.68,39.32-8.51,59q-2.1,14.49-4.18,29c-.7,4.82-1.41,9.64-2.21,14.45-.83,5-1.33,10.21-6.24,12.85a5.4,5.4,0,0,1-6.36-.82c-3.75-3.72-3.18-8.15-2.57-13,.66-5.18,1.36-10.34,2.12-15.51q2.13-14.48,4.27-29,4.34-29.46,8.68-58.93c2.9-19.64,5.59-39.32,8.83-58.9l4.77-28.82c1.61-9.74,2.88-20.19,8.18-28.68a3.07,3.07,0,0,1,5.54.73Z"/><rect class="cls-8" x="1142.9" y="1530.66" width="149.39" height="17.77" rx="8.16" transform="translate(2435.19 3079.08) rotate(180)"/><rect class="cls-8" x="1137.54" y="1608.42" width="158.48" height="11.92" rx="5.47"/><rect class="cls-8" x="1677.94" y="1608.42" width="158.48" height="11.92" rx="5.47"/><path class="cls-21" d="M1552.51,1748.53s-8.78,10.43-16.68,12.52-8,2.79-7.95,3.66,10.49,1.21,17.9.51c6.53-.61,8.37-8.33,11.9-7.52s2.69,7,2.69,7h1.88s1.36-6,2.18-8.27-.88-7.08-.88-7.08S1555.41,1753.41,1552.51,1748.53Z"/><path class="cls-21" d="M1619.77,1745.27s-4.14,13.87-11.86,16.54c-6.84,2.37-8.13,3.55-7.89,4.38s9.76,1.38,16.8-1c6.21-2.11,6.19-10.05,9.82-10.09s4.23,6.83,4.23,6.83l1.85-1.07s-.08-6.17.19-8.56-3.36-6.8-3.36-6.8S1623.73,1749.33,1619.77,1745.27Z"/><path class="cls-26" d="M1657.64,1493c-7.91-34.35-13.53-67.46-15.73-72.26H1278.23a3.93,3.93,0,0,0-3.54,3.2c-5.53,43.22-16.66,85.71-33.77,125.14q-3,7-6.34,14c-1.75,3.66-3.59,7-2.87,11.23,1,6,6.21,10.12,11.71,9.33,6.84-1,13-6.79,18.31-11.14s12.06-10.63,19.34-9.14c7.69,1.57,15.15,8.2,21.46,12.93s12.52,9.5,19.56,12.69c6.47,2.93,13.49,4.22,20.42,2.65,7.2-1.62,13.87-5.9,20.3-9.62s13.6-8.53,21.09-9c7-.49,12.91,2.62,18.21,7.35,7.85,7,17.74,16.57,28.87,13,7.22-2.34,12.72-10.58,18.22-15.75,8-7.54,17.43-12.3,28-8.37,14.73,5.49,23.35,22.37,39,26.21,9.22,2.27,16.88-1.82,24-8,8.12-7,14.09-12.45,24.67-6.88,11.16,5.88,23.51,19.85,37,15.35,7.46-2.48,12-9.68,18.16-14.34,9-6.79,19.57-2.1,28.87,1.34,10.75,4,26,6.77,34.24-4.25C1691.45,1567.36,1668.8,1541.47,1657.64,1493Z"/><path class="cls-13" d="M1657.64,1493c-1.22-5.28-2.38-10.52-3.48-15.64a112.78,112.78,0,0,1-13.36,23.84,86.14,86.14,0,0,1-37.39,29.08c-9.85,3.92-20.47,6-31.06,4.63s-19.95-7.83-30.63-8.65c-5.78-.44-10.8,1.78-15.85,4.32a63.71,63.71,0,0,1-14.13,5.53c-10.88,2.54-21.32-.46-31.49-4.27-8.67-3.24-17.66-6.55-27-7.11-9.15-.54-17.91,2.12-26.14,5.92-9.54,4.41-18.41,10-28.74,12.5a43.36,43.36,0,0,1-26.78-1.62c-9-3.63-16-10.12-23.48-16a34.73,34.73,0,0,0-11.58-6.4c-5.21-1.53-10.94-1.63-16.33-1.48-19.25.53-37.63,8.22-57,7.27a57.1,57.1,0,0,1-12.1-1.8q-4.71,13.18-10.25,26-3,7-6.34,14c-1.75,3.66-3.59,7-2.87,11.23,1,6,6.21,10.12,11.71,9.33,6.84-1,13-6.79,18.31-11.14s12.06-10.63,19.34-9.14c7.69,1.57,15.15,8.2,21.46,12.93s12.52,9.5,19.56,12.69c6.47,2.93,13.49,4.22,20.42,2.65,7.2-1.62,13.87-5.9,20.3-9.62s13.6-8.53,21.09-9c7-.49,12.91,2.62,18.21,7.35,7.85,7,17.74,16.57,28.87,13,7.22-2.34,12.72-10.58,18.22-15.75,8-7.54,17.43-12.3,28-8.37,14.73,5.49,23.35,22.37,39,26.21,9.22,2.27,16.88-1.82,24-8,8.12-7,14.09-12.45,24.67-6.88,11.16,5.88,23.51,19.85,37,15.35,7.46-2.48,12-9.68,18.16-14.34,9-6.79,19.57-2.1,28.87,1.34,10.75,4,26,6.77,34.24-4.25C1691.45,1567.36,1668.8,1541.47,1657.64,1493Z"/><path class="cls-27" d="M1472.75,1381a2.67,2.67,0,0,0,.43-1.27c.34-4.29,4.51-31.47-6.59-26.88-4.41,1.82,0,8.47.41,12.37.79,6.54.12,10.91,2.84,17.74a1.73,1.73,0,1,0,3.2-1.27Z"/><path class="cls-27" d="M1467,1372c-1.91,1.78-.55,2.57-2.51,1.72a82.54,82.54,0,0,0,2.86,9.65C1468.12,1385.51,1466.83,1375.57,1467,1372Z"/><path class="cls-21" d="M1486,1363.54a5,5,0,0,0-2.42-.51,4.4,4.4,0,0,0-2.17-3,1.2,1.2,0,0,0-.23-.11,12.83,12.83,0,0,0-.55-3.52,3.35,3.35,0,0,0-6-.79c-.4.64-.76,1.28-1.11,1.93-1-3.93-3-6.31-6.9-4.68-2.37,1-3.54,3.3-4,5.85a21.44,21.44,0,0,0-1.92-1.39c-2.37-1.53-6.26-3.76-8.65-1.1-2.18,2.43-.71,6.06,1.32,8.17a8.22,8.22,0,0,0-2.45,3.75,3.73,3.73,0,0,0,4.54,4.72,4.22,4.22,0,0,0,1.22-.56c1.35,2.37,3.8,2.83,6.33,2.43a3.58,3.58,0,0,0,4.65-.2c.57-.62,1.05-1.6,1.56-2.14.34,2.8,4.65,3.7,6.47,1.13.08-.1.15-.21.23-.32l.13,0h.2a7.68,7.68,0,0,0,8.07,1.42,7.56,7.56,0,0,0,4.56-4.73A5.42,5.42,0,0,0,1486,1363.54Z"/><path class="cls-8" d="M1478.82,1400.09c-11.13-9.6-3.75-19.07-3.75-19.07h-12.28s7.39,9.47-3.75,19.07c-7,6-8.2,15.14-5,20.62h29.86C1487,1415.23,1485.78,1406.1,1478.82,1400.09Z"/><rect class="cls-28" x="412.93" y="502.32" width="639.96" height="1266.76" rx="66.19"/><path class="cls-29" d="M494.33,524H971.39a67.8,67.8,0,0,1,67.8,67.8V1683.61a66.1,66.1,0,0,1-66.1,66.1h-478a68.49,68.49,0,0,1-68.49-68.49V591.71A67.7,67.7,0,0,1,494.33,524Z"/><path class="cls-30" d="M426.63,1611.38v73.37a65,65,0,0,0,65,65H974.24a65,65,0,0,0,65-65v-73.37Z"/><path class="cls-31" d="M1039.19,756V589a65,65,0,0,0-65-65H491.59a65,65,0,0,0-65,65V756Z"/><rect class="cls-32" x="426.63" y="615.21" width="612.56" height="140.83"/><path class="cls-7" d="M1034.74,565.45A64.93,64.93,0,0,0,974.24,524H491.59a64.93,64.93,0,0,0-60.5,41.43Z"/><path class="cls-28" d="M754.16,687.48a.18.18,0,0,0,0-.35.18.18,0,0,0,0,.35Z"/><path class="cls-7" d="M739.5,511.1a5.78,5.78,0,1,1-5.78-5.78A5.78,5.78,0,0,1,739.5,511.1Z"/><path class="cls-28" d="M1060.59,643.53v-55.3a7.9,7.9,0,1,0-15.8,0v55.3Z"/><path class="cls-28" d="M1044.79,655.94v48.78a7.9,7.9,0,1,0,15.8,0V655.94Z"/><rect class="cls-33" x="506.05" y="524.02" width="103.71" height="1225.69"/><path class="cls-34" d="M1025.65,553.05a4.34,4.34,0,0,0-7.8,2.23c-3.17,37.3-6.85,74.55-11.33,111.72-12.76,106-31.73,211.65-64,313.54-31.45,99.27-76,194.92-138.33,278.68-61.48,82.58-142.49,152.92-229.42,207.56-45,28.26-93.92,53.54-145.18,70.81a4.33,4.33,0,0,0-2.95,4.1v141.58a66.43,66.43,0,0,0,66.43,66.43h479.7a66.43,66.43,0,0,0,66.43-66.43V594.63A70.31,70.31,0,0,0,1025.65,553.05Z"/><path class="cls-8" d="M769.26,1201.59c0,3.71-13.5,6.72-30.14,6.72s-30.14-3-30.14-6.72,13.49-6.72,30.14-6.72S769.26,1197.88,769.26,1201.59Z"/><rect class="cls-8" x="730.69" y="1017.51" width="16.86" height="185.61" rx="7.53"/><path class="cls-21" d="M555.83,1119.42a60,60,0,0,1,20.25,6.25c4,2.07,7.85,4.32,11.81,6.37,2.64,1.36,5.41,2.7,8.31,3,7.13.68,14.41-4.69,20.52-8.21,6.84-4,15.3-6.54,23-5.12,7.42,1.36,14.25,6,21.1,9.3,7.31,3.58,15.32,7.22,23.18,3.86a106.61,106.61,0,0,0,9.48-5.19,80.18,80.18,0,0,1,13.27-6,37,37,0,0,1,24.78.09c8.78,3.08,16.81,8.83,25.84,11,6.42,1.51,12.16-.39,18-3.32,8.13-4,16.29-9.35,25.09-11.08,5.88-1.15,10.34.93,15.26,4.46,6.84,4.91,15,10.12,23.25,9.77,6.61-.27,11.68-5.76,17.48-8.75,7-3.63,14.11-4.58,21.25-1,3.55,1.75,6.9,4,10.54,5.51a30,30,0,0,0,12.07,2.31c6.72-.18,12.67-4,18-8.38,2.23-1.83,4.39-3.77,6.57-5.67L899.88,919.71h-335s-16.47,127-25.66,202.4C544.28,1119.07,550.29,1118.73,555.83,1119.42Z"/><path class="cls-25" d="M902.19,938c-1.58,5.77-3.32,11.52-5.05,17.23-3.39,11.22-6.39,22.45-8.91,33.9-2.05,9.31-2.65,18.84-4.36,28.21-1.58,8.59-4.42,16.89-10,23.71a48.7,48.7,0,0,1-27.67,16.23c-10.29,2.1-20.76.76-31-.92-5.6-.91-11.19-1.91-16.83-2.54-5.49-.6-11.26-1.14-16.74-.17-9.05,1.6-16.15,7.32-23.49,12.4s-15.54,9.29-24.65,8.71c-8.52-.54-15.75-5.28-22.38-10.26-7.36-5.54-14.39-11.28-23.38-13.94-11.49-3.39-23.72-3.11-35.56-2.36-10.92.69-22,2.29-33,1-15.73-1.79-30.26-8.67-40.56-20.85-10-11.85-15.46-26.93-18.55-42-.86-4.16-1.55-8.35-2.1-12.55-5.59,43.57-13.35,104.51-18.67,148.18,5-3,11-3.38,16.56-2.69a60,60,0,0,1,20.25,6.25c4,2.07,7.85,4.32,11.81,6.37,2.64,1.36,5.41,2.7,8.31,3,7.13.68,14.41-4.69,20.52-8.21,6.84-4,15.3-6.54,23-5.12,7.42,1.36,14.25,6,21.1,9.3,7.31,3.58,15.32,7.22,23.18,3.86a106.61,106.61,0,0,0,9.48-5.19,80.18,80.18,0,0,1,13.27-6,37,37,0,0,1,24.78.09c8.78,3.08,16.81,8.83,25.84,11,6.42,1.51,12.16-.39,18-3.32,8.13-4,16.29-9.35,25.09-11.08,5.88-1.15,10.34.93,15.26,4.46,6.84,4.91,15,10.12,23.25,9.77,6.61-.27,11.68-5.76,17.48-8.75,7-3.63,14.11-4.58,21.25-1,3.55,1.75,6.9,4,10.54,5.51a30,30,0,0,0,12.07,2.31c6.72-.18,12.67-4,18-8.38,2.23-1.83,4.39-3.77,6.57-5.67Z"/><ellipse class="cls-23" cx="732.41" cy="919.71" rx="167.48" ry="18.17"/><ellipse class="cls-35" cx="638.09" cy="918.19" rx="33.07" ry="7.11"/><path class="cls-7" d="M671.17,917.54c0,3.58-14.81,6.47-33.08,6.47S605,921.12,605,917.54s14.81-6.46,33.07-6.46S671.17,914,671.17,917.54Z"/><ellipse class="cls-2" cx="638.09" cy="917.54" rx="21.44" ry="4.19"/><ellipse class="cls-35" cx="826.4" cy="918.19" rx="33.07" ry="7.11"/><path class="cls-7" d="M859.47,917.54c0,3.58-14.8,6.47-33.07,6.47s-33.07-2.89-33.07-6.47,14.81-6.46,33.07-6.46S859.47,914,859.47,917.54Z"/><ellipse class="cls-2" cx="826.4" cy="917.54" rx="21.44" ry="4.19"/><path class="cls-27" d="M729.09,902.92a90.16,90.16,0,0,0-4.29-17.83c-1.85-5-3.86-10.6-7.47-14.66-1.1-1.23-3.08.08-2.69,1.57,1.44,5.37,5.51,6.81,7.21,12.12,3.32,10.34,2.58,14.21,3.79,19.75.5,2.29,3.78,1.27,3.45-1Z"/><path class="cls-27" d="M732.55,900.61q-.94-6.42-1.57-12.87c-.33-3.5-.29-7.12-1.08-10.55-.36-1.53-2.43-1-2.57.35-.78,7.66,1.18,16.27,2.34,23.86.29,1.9,3.15,1.09,2.88-.79Z"/><path class="cls-27" d="M735.09,905c-1.23-4.58.24-10.35,1.07-15,.87-4.81,2.45-9.5,3.06-14.35a1.27,1.27,0,0,0-2.43-.62c-2.56,4.88-3.4,10.63-4.06,16-.58,4.71-1.33,9.92.94,14.3.36.69,1.65.44,1.42-.42Z"/><path class="cls-8" d="M737.44,904.15l1.55-5.28H722.38l1.32,5.37c-5.13,1.93-8.65,5.9-8.65,10.5,0,4.2,3,7.88,7.37,10H739c4.42-2.08,7.37-5.76,7.37-10C746.33,910.07,742.69,906.05,737.44,904.15Z"/><path class="cls-21" d="M722.72,857.61c-.38-.33-3,1.17-3.5,1.09a4.15,4.15,0,0,0-4.16-.88,4.59,4.59,0,0,0-2.1,1.31,6.53,6.53,0,0,0-7.09,6.4,3,3,0,0,0,1.52,2.65l.4.16c1.66,2.56,6.85,10.77,11.34,8.91C723.94,875.26,727,861.27,722.72,857.61Z"/><path class="cls-36" d="M717.54,869.21c-4.16.87-9.34-.83-11.58-4.53,0,.27-.07.56-.09.85a3,3,0,0,0,1.52,2.65l.4.16c1.66,2.56,6.85,10.77,11.34,8.91,3.32-1.37,5.78-8.44,5.6-13.91C723.18,866.17,721,868.49,717.54,869.21Z"/><path class="cls-23" d="M731,863.27c-1.47.23-2.24,1.44-2.75,2.75,0-.21,0-.41,0-.62,0-3-4.91-3.81-5.33-.72a12.51,12.51,0,0,0-.1,3.33c0,.14.35,2.86.38,3a23.28,23.28,0,0,0,1,4.89c.48,1.57.9,3.73,2.6,4.44,4.34,1.8,6.4-5.13,7.16-8C734.55,869.85,735.63,862.55,731,863.27Z"/><path class="cls-36" d="M731.22,876.33c-4,1.26-6.72-1.64-8.07-5.43,0,.07,0,.12,0,.14a23.28,23.28,0,0,0,1,4.89c.48,1.57.9,3.73,2.6,4.44,3.12,1.3,5.06-1.92,6.19-4.91A5.87,5.87,0,0,1,731.22,876.33Z"/><path class="cls-21" d="M743.65,860.43a.35.35,0,0,1,0,.08c-.9-1.25-3-1.85-4.18-.49-.25.28-.49.58-.72.88a13.37,13.37,0,0,0-1.47-2.17c-1.27-1.54-4.21-1.64-4.8.59-.06.25-.12.51-.17.77a1.6,1.6,0,0,0-.39,1.1,52.86,52.86,0,0,0,.9,9c.41,2.27.53,5.35,2.5,7a3.32,3.32,0,0,0,1.64.74,3,3,0,0,0,2.48,0c2.82-1.3,4.5-4,5.84-6.94a19.3,19.3,0,0,0,3.77-8.47C749.51,859.65,745.41,857.57,743.65,860.43Z"/><path class="cls-36" d="M746.06,867c-1.58,2.33-3.3,4.9-5.78,6.36-3,1.76-5.26,1.24-7.06-.32a6.91,6.91,0,0,0,2,4.21,3.32,3.32,0,0,0,1.64.74,3,3,0,0,0,2.48,0c2.82-1.3,4.5-4,5.84-6.94a19.3,19.3,0,0,0,3.77-8.47,1.09,1.09,0,0,0,0-.18C748.09,863.9,747.09,865.43,746.06,867Z"/><path class="cls-21" d="M713.74,1301.66c0,17.85-7,28-20.14,28s-20.14-10.11-20.14-28,7-27.88,20.14-27.88S713.74,1283.73,713.74,1301.66Zm-27.49,0c0,14.13,2.14,18.72,7.35,18.72s7.34-4.27,7.34-18.72S698.73,1283,693.6,1283,686.25,1287.52,686.25,1301.66Z"/><path class="cls-21" d="M759.94,1301.66c0,17.85-7,28-20.14,28s-20.14-10.11-20.14-28,7-27.88,20.14-27.88S759.94,1283.73,759.94,1301.66Zm-27.49,0c0,14.13,2.14,18.72,7.35,18.72s7.34-4.27,7.34-18.72S744.93,1283,739.8,1283,732.45,1287.52,732.45,1301.66Z"/><path class="cls-21" d="M798.71,1287.36c0,6.48-3.87,10.82-10.42,12.72,6.63.71,12.16,4.66,12.16,13.11,0,8.92-7.19,16.43-20.38,16.43-8.05,0-14.13-3-18.32-8.06l6.71-6.56c3.56,3.56,6.72,5.14,10.9,5.14,4.9,0,8.3-2.85,8.3-7.74,0-5.61-3.08-7.66-8.69-7.66h-4.42l1.34-8.61H779c4.74,0,7.66-2.53,7.66-7,0-3.87-2.76-6.16-7.11-6.16-3.95,0-7.26,1.58-10.42,4.66l-6.16-6.72a25.12,25.12,0,0,1,18-7.18C792.47,1273.78,798.71,1279.86,798.71,1287.36Z"/><rect class="cls-37" x="506.51" y="1407.39" width="437.13" height="110.04" rx="38.58"/><path class="cls-13" d="M900.45,1407.39h-9.6a62.38,62.38,0,0,1-62.38,62.38h-322v4.47a43.32,43.32,0,0,0,43.19,43.19H900.45a43.32,43.32,0,0,0,43.19-43.19v-23.66A43.32,43.32,0,0,0,900.45,1407.39Z"/><rect class="cls-33" x="530.26" y="1425.42" width="341.3" height="25.02" rx="2.02"/><path class="cls-2" d="M604.72,1465.32h-4.79v19.82H587.66V1433.3h17c14.06,0,21.32,5,21.32,15.78,0,6.81-3.22,10.93-10,14l13.17,22.07H615.35Zm-4.79-8.46h5.17c5.38,0,8.23-2.32,8.23-7.78,0-5-2.92-7.18-9-7.18h-4.42Z"/><path class="cls-2" d="M664.35,1442.05H646.09v12.42H662v8.6H646.09v13.25h19.53v8.82H633.83V1433.3h31.79Z"/><path class="cls-2" d="M707.07,1438.68l-5.69,6.66A17.32,17.32,0,0,0,690,1441c-4.26,0-7,1.8-7,5.09s2,4.64,10,7.18c9.8,3.15,15.41,7.19,15.41,16.76s-7.63,16.39-20.57,16.39c-9,0-15.42-3.3-19.68-7.41l6.21-6.81a19.51,19.51,0,0,0,13.09,5.09c5.09,0,8.23-2.4,8.23-6.36s-1.94-5.54-9.5-7.86c-11.6-3.59-15.86-8.38-15.86-16.08,0-9.13,7.93-15,18.7-15C697,1432,702.51,1434.34,707.07,1438.68Z"/><path class="cls-2" d="M745.75,1442.05H727.49v12.42h15.94v8.6H727.49v13.25H747v8.82h-31.8V1433.3H747Z"/><path class="cls-2" d="M771.63,1465.32h-4.78v19.82H754.58V1433.3h17c14.07,0,21.32,5,21.32,15.78,0,6.81-3.22,10.93-10,14l13.17,22.07H782.26Zm-4.78-8.46H772c5.39,0,8.23-2.32,8.23-7.78,0-5-2.92-7.18-9-7.18h-4.41Z"/><path class="cls-2" d="M824.46,1485.14H809.19l-15-51.84h12.94l9.88,42.27,9.28-42.27h12.56Z"/><path class="cls-2" d="M873.23,1442.05H855v12.42h15.94v8.6H855v13.25h19.53v8.82h-31.8V1433.3h31.8Z"/><path class="cls-19" d="M291.15,1038.77s13.3-1.57,13.52-5.47c.95-16.82,2.06-17.43,2-17.16l19,0s1.53,16.32,1.67,17.29,3,4.35,9.68,5.37a95.15,95.15,0,0,1,9.42,2s-17.4,83-34.24,70.59-22.16-68.58-22.16-68.58Z"/><path class="cls-18" d="M245.9,1298.7l16,192a165.43,165.43,0,0,1-1.2,36.92c-3.25,21.15-11.53,46.26-13.43,74.94-1.47,22.14,7.53,103.85,10.71,137.66a67.85,67.85,0,0,1-.19,15.5s-5.13,19.06,6.84,18.19c10.14-.74,8.06-18.19,8.06-18.19a106.79,106.79,0,0,1,2.09-18.21c5.06-26.71,15.67-78.33,22.1-125.28,4.71-34.43,5.63-71.4,10.73-88.67,15-50.63,6.27-191.62,6.27-191.62s28.47,149.27,28.14,170.09c-.41,26.77-6.85,50.1-.43,99.94,4.79,37.11,23.23,139.19,24.27,152.85.29,3.77,8.91,13.12,16.77,17.3,7.65,4.06,12.52,1.44,11.06.29-3.77-3-9.27-7.8-11.71-15.39-7.35-23,11-121.18,9.36-180.86-1.53-55-6-81.59-6-81.59s16.89-169.29,7.7-203.17-42.48-82.61-42.48-82.61l-72.47,21.84Z"/><path class="cls-21" d="M270.2,1211.52s-26.34,44.86-30.58,95.84,15.25,192.12,15.25,192.12,52.72,24.13,138.05.1c0,0,16.81-134.82,14.36-184.45C404,1248.76,362.65,1207,362.65,1207Z"/><path class="cls-25" d="M407.28,1315.13a172.93,172.93,0,0,0-13.79-59.35c.14,3.33.25,6.67.32,10,.56,26.86-1.09,53.88-6,80.32-4.56,24.76-12,49.47-24.74,71.31-11.38,19.51-27.44,36.44-48.1,46.1-20,9.33-42.09,11.07-63.7,8.47,2.07,16.7,3.56,27.5,3.56,27.5s52.72,24.13,138.05.1C392.92,1499.58,409.73,1364.76,407.28,1315.13Z"/><path class="cls-7" d="M375,1048.43a73.41,73.41,0,0,0-14.85-5.56c-15.53-3.44-19.66-3.6-19.66-3.6s-4.82,30.48-24.12,31c-19.71.57-24.91-31.54-24.91-31.54s-6,0-22.13,4.19a182.32,182.32,0,0,0-19.94,6.47c-6.75,2.6-14.23,5.85-22.41,9.95-43.42,21.71-78.32,82.35-63,139.91a102.33,102.33,0,0,0,7.48,19.61,117,117,0,0,0,9.19,15.21,102.57,102.57,0,0,0,29-8.29c-.55-1.44-1.06-2.91-1.5-4.46s-.85-3.27-1.2-4.86-.62-3.14-.85-4.67c-6.47-44.06,34-62.63,46.91-62.82,2.33,0,3.77.53,3.85,1.66.34,4.85,4.24,37.44,13.08,51.49l32.28,16.42s3.43.18,8.64.4c5.88.27,14,.58,22.1.78,14.56.35,28.91.32,29.38-1.18,5.23-16.76-1.25-43.39-2.78-60.67-1.66-18.65,5.88-52.15,8.06-70.86C369.15,1073.52,372.12,1061.71,375,1048.43Z"/><path class="cls-18" d="M246.55,1276.27c-1.87,16.35-6.71,24.84-6.71,24.84s-2.78-1.12-6.68-21.87l-.49-.23c-9.24-4.5-43.54-24.84-61.25-60.12,8.57-7.86,22.06-9.42,34.64-7.07h0c.22,1.53.5,3.09.83,4.67s.75,3.21,1.2,4.86C216.45,1251.1,248.5,1259.29,246.55,1276.27Z"/><path class="cls-8" d="M385.7,1148.45c-.86,2.64-13,71-16.44,72.9-7.51,4.23-25.05,7-25.05,7s-5.74-4.4-11.28-8.56c-4.76-3.56-9.37-6.93-10.1-7.14-1.3-.39-2.61-.84-3.92-.29-1.08.44-4.34,3.4-8.08,6.65-4.71,4.11-10.2,8.69-13.09,9.34-.85.19-27-9.74-27-9.74S252.08,1150.16,253,1149c3.92-5.15,7.48-15.11,8.58-23.67,5.19-40.12-5.53-66.33-12.19-75.92A184.94,184.94,0,0,1,269.3,1043c14.82,24.43,31.62,90.94,47.6,91.86,10.24.6,36.7-71.87,43.22-91.94.25-.79-.66,2.12,0,0,0,0,14.89,3.47,22.26,7.69-1.85,7.16-7.41,21.61-10.27,37.22C364.81,1127.52,374,1135.1,385.7,1148.45Z"/><rect class="cls-2" x="280.72" y="1118.16" width="68.86" height="97.77" transform="translate(95.72 -21.72) rotate(4.65)"/><path class="cls-25" d="M327,1191.7c-17.42,2.4-31.06-10.86-47.26-14.27L276.87,1213l68.63,5.58,2.92-35.82A48.77,48.77,0,0,1,327,1191.7Z"/><path class="cls-38" d="M441.25,1114.35c-.64-2.57-1.36-5.13-2.18-7.66-7-21.92-20.29-40-40.35-51.18a48.83,48.83,0,0,0-16.34-5c-5.64,0-10.17,12.25-12,18.73-7.58,26.32-7.71,47.46,4.16,70.53,5.09,9.88,10.67,19.93,11.68,31,1.65,18.09-11.2,26-28.08,28.25-22.68,3.07-53.72-.46-70.82-16.44-3-2.76-7.31-6-10.46-3.51a7.18,7.18,0,0,0-1.92,3c-2.53,6.29-4,17,2.51,18.76,2.87.76,4.22,1.41,7.51,2.37,5,1.43,15.88,9.21,20.46,11.55,9.44,4.82,53.74,35.22,98.2,16.56C442.85,1214.89,447.31,1138.59,441.25,1114.35Z"/><path class="cls-18" d="M384.65,1236.58c5.44-6.37,9.07-14,8.77-22.72-.25-7.29-3.82-21.4-11.3-26.26-4.92,6.61-13.71,10.09-24,11.48-22.68,3.07-53.72-.46-70.82-16.44-3-2.76-7.31-6-10.46-3.51a7.18,7.18,0,0,0-1.92,3c-2.53,6.29-4,17,2.51,18.76,2.87.76,4.22,1.41,7.51,2.37,5,1.43,15.88,9.21,20.46,11.55C313.48,1218.94,347.19,1241.87,384.65,1236.58Z"/><path class="cls-18" d="M331.74,1007.94c-1.55,12.59-7.24,23-16.16,23s-13.14-10.65-16.15-23c-3.33-13.62,7.23-23,16.15-23S333.39,994.45,331.74,1007.94Z"/><path class="cls-8" d="M340.1,985.8c-4.84-9.27-15.3-16-25.85-15l-.2,0c-11.25,1.17-21.84,9.55-23,21a30.78,30.78,0,0,0,2.46,14.5,23.41,23.41,0,0,0,3.3,6,8.34,8.34,0,0,0,1.73,1.73c.24.16,1.4.46,1.49.58,1.3,1.7-5.87-10.72-1.65-12.18,2.25-.78.39-10.34,8.39-13.51a34.32,34.32,0,0,0,6.9,6.93c4.6,3.48,7.39.84,11.41,3.34,2.12,1.31,2.68,9,3.06,11,1,5.1,4.1,3.41,7.44,1.12a17.45,17.45,0,0,0,7.21-13.08A23,23,0,0,0,340.1,985.8Z"/><path class="cls-18" d="M304.82,1007.7c1.16,4.26.35,8.19-1.82,8.78s-4.87-2.38-6-6.64-.35-8.19,1.82-8.78S303.66,1003.44,304.82,1007.7Z"/><path class="cls-21" d="M257.77,1755.77s-3.6,11.44-2.42,14.22c1.74,4.1,7.26,7.68,9.58,7.65,4.69-.07,9.83-8.73,9.83-8.73l-2.09-13.14s-.77,12.5-8.06,12.5S257.77,1755.77,257.77,1755.77Z"/><path class="cls-21" d="M365.84,1754.87c-.79,1.41-2.37,5.78-2.27,7.65A136,136,0,0,0,365.4,1776h2s-.68-10.23,1.71-10.23c5.7,0,5.08,8.21,9.62,10.23,3,1.34,19.26,1.1,19.26,1.1s5.55.45,4.84-1.1c-.94-2-4.85-1.13-9.58-4.36-2.88-2-1.31,2.26-8,.22s-9.8-9.06-12.49-12.2C372.26,1759,366.86,1753.05,365.84,1754.87Z"/><text class="cls-39" transform="translate(2129.72 299.5)">RESE<tspan class="cls-40" x="485.61" y="0">R</tspan><tspan x="619.12" y="0">VEZ </tspan><tspan x="0" y="289.2">V</tspan><tspan class="cls-41" x="134.48" y="289.2">O</tspan><tspan x="294.5" y="289.2">TRE</tspan><tspan class="cls-42" x="662.5" y="289.2"> </tspan><tspan class="cls-43" x="703.71" y="289.2">T</tspan><tspan x="805.42" y="289.2">ABLE</tspan></text><text/><text class="cls-44" transform="translate(2237.7 934.38)"><tspan class="cls-45">D</tspan><tspan x="79.73" y="0">é</tspan><tspan class="cls-46" x="139.35" y="0">c</tspan><tspan x="191.94" y="0">ouv</tspan><tspan class="cls-47" x="380.08" y="0">r</tspan><tspan x="417.8" y="0">ez et </tspan><tspan class="cls-48" x="677.81" y="0">r</tspan><tspan x="715.54" y="0">eche</tspan><tspan class="cls-47" x="954.13" y="0">r</tspan><tspan x="991.85" y="0">chez </tspan><tspan x="0" y="142.8">le meilleur </tspan><tspan class="cls-47" x="545.13" y="142.8">r</tspan><tspan x="582.85" y="142.8">estau</tspan><tspan class="cls-49" x="851.91" y="142.8">r</tspan><tspan x="890.23" y="142.8">a</tspan><tspan class="cls-50" x="947.58" y="142.8">n</tspan><tspan x="1013.15" y="142.8">t</tspan><tspan class="cls-51" x="1052.54" y="142.8" xml:space="preserve">  </tspan><tspan class="cls-52"><tspan x="0" y="255.6"> </tspan></tspan></text><text class="cls-53" transform="matrix(1.13, -0.01, 0.01, 1, 2619.92, 1356.11)">RECHE<tspan class="cls-54" x="172.32" y="0">R</tspan><tspan x="206.17" y="0">CHE</tspan></text></g></g></svg>