<?xml version="1.0" encoding="utf-8"?>
<!-- Generator: Adobe Illustrator 24.1.1, SVG Export Plug-In . SVG Version: 6.00 Build 0)  -->
<svg version="1.1" xmlns="http://www.w3.org/2000/svg" xmlns:xlink="http://www.w3.org/1999/xlink" x="0px" y="0px"
	 viewBox="0 0 2267.72 1133.86" style="enable-background:new 0 0 2267.72 1133.86;" xml:space="preserve">
<style type="text/css">
	.st0{display:none;}
	.st1{display:inline;}
	.st2{clip-path:url(#SVGID_2_);}
	.st3{opacity:0.28;clip-path:url(#SVGID_4_);}
	.st4{clip-path:url(#SVGID_10_);fill:none;stroke:#FFCB0F;stroke-width:12.1256;stroke-miterlimit:10;}
	.st5{clip-path:url(#SVGID_12_);fill:#FFCB0F;}
	.st6{clip-path:url(#SVGID_16_);fill:#FFCB0F;}
	.st7{clip-path:url(#SVGID_16_);fill:none;stroke:#FFCB0F;stroke-width:3.0314;stroke-miterlimit:10;}
	.st8{clip-path:url(#SVGID_20_);fill:#FFCB0F;}
	.st9{clip-path:url(#SVGID_22_);fill:none;stroke:#FFCB0F;stroke-width:3.0314;stroke-miterlimit:10;}
	.st10{clip-path:url(#SVGID_22_);fill:#FFCB0F;}
	.st11{opacity:0.49;clip-path:url(#SVGID_28_);}
	.st12{opacity:0.43;clip-path:url(#SVGID_32_);}
	.st13{clip-path:url(#SVGID_36_);fill:none;stroke:#FFCB0F;stroke-width:9.0942;stroke-miterlimit:10;}
	.st14{clip-path:url(#SVGID_38_);fill:none;stroke:#FFCB0F;stroke-width:9.0942;stroke-miterlimit:10;}
	.st15{clip-path:url(#SVGID_40_);fill:#FFCB0F;}
	.st16{clip-path:url(#SVGID_40_);fill:none;stroke:#FFCB0F;stroke-width:9.0942;stroke-miterlimit:10;}
	.st17{opacity:0.32;clip-path:url(#SVGID_42_);}
	.st18{fill:#FECA18;}
	.st19{clip-path:url(#SVGID_46_);}
	.st20{opacity:0.28;clip-path:url(#SVGID_48_);}
	.st21{clip-path:url(#SVGID_54_);fill:none;stroke:#FFCB0F;stroke-width:12.1743;stroke-miterlimit:10;}
	.st22{clip-path:url(#SVGID_56_);fill:#FFCB0F;}
	.st23{clip-path:url(#SVGID_60_);fill:#FFCB0F;}
	.st24{clip-path:url(#SVGID_60_);fill:none;stroke:#FFCB0F;stroke-width:3.0436;stroke-miterlimit:10;}
	.st25{clip-path:url(#SVGID_64_);fill:#FFCB0F;}
	.st26{clip-path:url(#SVGID_66_);fill:none;stroke:#FFCB0F;stroke-width:3.0436;stroke-miterlimit:10;}
	.st27{clip-path:url(#SVGID_66_);fill:#FFCB0F;}
	.st28{opacity:0.49;clip-path:url(#SVGID_72_);}
	.st29{opacity:0.43;clip-path:url(#SVGID_76_);}
	.st30{clip-path:url(#SVGID_80_);fill:none;stroke:#FFCB0F;stroke-width:9.1307;stroke-miterlimit:10;}
	.st31{clip-path:url(#SVGID_82_);fill:none;stroke:#FFCB0F;stroke-width:9.1307;stroke-miterlimit:10;}
	.st32{clip-path:url(#SVGID_84_);fill:#FFCB0F;}
	.st33{clip-path:url(#SVGID_84_);fill:none;stroke:#FFCB0F;stroke-width:9.1307;stroke-miterlimit:10;}
	.st34{opacity:0.32;clip-path:url(#SVGID_86_);}
	.st35{fill:none;}
	.st36{font-family:'ArialRoundedMTBold';}
	.st37{font-size:200px;}
</style>
<g id="Calque_1" class="st0">
	<g class="st1">
		<g>
			<defs>
				<rect id="SVGID_1_" x="83.08" y="128.17" width="777.08" height="775"/>
			</defs>
			<clipPath id="SVGID_2_">
				<use xlink:href="#SVGID_1_"  style="overflow:visible;"/>
			</clipPath>
			<g class="st2">
				<defs>
					<rect id="SVGID_3_" x="83.08" y="128.17" width="777.08" height="775"/>
				</defs>
				<clipPath id="SVGID_4_">
					<use xlink:href="#SVGID_3_"  style="overflow:visible;"/>
				</clipPath>
				<g class="st3">
					<g>
						<defs>
							<rect id="SVGID_5_" x="122.68" y="160.48" width="681.25" height="708.64"/>
						</defs>
						<clipPath id="SVGID_6_">
							<use xlink:href="#SVGID_5_"  style="overflow:visible;"/>
						</clipPath>
					</g>
				</g>
			</g>
			<g class="st2">
				<defs>
					<rect id="SVGID_7_" x="303.81" y="354.4" width="343.58" height="325.86"/>
				</defs>
				<clipPath id="SVGID_8_">
					<use xlink:href="#SVGID_7_"  style="overflow:visible;"/>
				</clipPath>
			</g>
			<g class="st2">
				<defs>
					<rect id="SVGID_9_" x="83.08" y="128.17" width="777.08" height="775"/>
				</defs>
				<clipPath id="SVGID_10_">
					<use xlink:href="#SVGID_9_"  style="overflow:visible;"/>
				</clipPath>
				<path class="st4" d="M673.46,515.27c0,111.83-91.2,202.48-203.7,202.48c-112.5,0-203.7-90.65-203.7-202.48
					s91.19-202.49,203.7-202.49C582.26,312.78,673.46,403.44,673.46,515.27z"/>
			</g>
			<g class="st2">
				<defs>
					<rect id="SVGID_11_" x="83.08" y="128.17" width="777.08" height="775"/>
				</defs>
				<clipPath id="SVGID_12_">
					<use xlink:href="#SVGID_11_"  style="overflow:visible;"/>
				</clipPath>
				<path class="st5" d="M633.79,391.07c31.41-23.79,61.68-51.17,76.88-88.37c4.48-10.98,7.44-22.48,9.08-34.21
					c0.4-2.86-3.99-4.09-4.39-1.2c-2.73,19.52-9.32,38.12-19.71,54.89c-10.15,16.39-23.39,30.62-37.74,43.43
					c-8.48,7.57-17.36,14.67-26.43,21.54C629.19,388.89,631.45,392.84,633.79,391.07"/>
				<path class="st5" d="M308.25,641.67c-4.34,6-7.73,12.78-13.07,18c-6.94,6.78-17.65,7.87-26.87,8.98
					c-10.25,1.24-20.66,1.89-30.56,5.05c-9.52,3.04-18.16,8.96-26.58,14.24c-16.22,10.17-31.56,21.72-44.78,35.61
					c-12.25,12.88-22.32,28.74-24.92,46.59c-2.28,15.61,1.53,34.25,14.15,44.78c10.99,9.18,26.1,10.89,39.91,9.68
					c34.84-3.04,66.24-21.02,91.72-44.06c7.67-6.94,15.54-14.16,22-22.24c6.63-8.3,11.97-17.44,16.1-27.21
					c8.03-19.01,11.32-39.49,16.24-59.41c0.7-2.84-3.69-4.05-4.39-1.2c-4.22,17.05-7.2,34.49-13.04,51.1
					c-6.14,17.49-15.85,32.1-28.97,45.13c-24.58,24.43-53.01,44.45-87.55,51.54c-13.69,2.81-29.57,3.99-42.46-2.47
					c-14.86-7.45-20.69-24.74-19.71-40.51c1.12-18.09,11.13-34.67,23.29-47.63c12.55-13.39,27.08-24.58,42.53-34.43
					c9.32-5.94,19-12.71,29.71-15.77c10.88-3.1,22.24-3.38,33.36-5.08c8.77-1.34,17.51-3.13,24.04-9.5
					c5.63-5.5,9.22-12.6,13.78-18.91C313.89,641.59,309.95,639.32,308.25,641.67"/>
				<path class="st5" d="M719.17,266.28c-13.83-15.28-34.07-12.5-50.82-3.84c-9.07,4.69-17.01,10.93-24.75,17.51
					c-10.61,8.99-21.04,18.19-31.39,27.47c-11.8,10.59-23.48,21.31-35.18,32.01c-2.16,1.98,1.06,5.18,3.22,3.21
					c18.9-17.28,37.76-34.62,57.13-51.39c14.69-12.72,30.24-27.16,50.04-30.95c10.91-2.09,21.05,0.91,28.54,9.19
					C717.92,271.67,721.13,268.45,719.17,266.28"/>
				<path class="st5" d="M617.44,372.28c35.4-31.2,68.53-66.94,85-111.9c1.01-2.75-3.39-3.94-4.39-1.21
					c-16.19,44.18-49.07,79.26-83.83,109.89C612.02,371.01,615.25,374.21,617.44,372.28"/>
				<path class="st5" d="M144.93,790.48c32.24,20.86,70.9,8.14,101.54-9.29c15.13-8.61,29.76-18.21,40.66-31.98
					c9.46-11.95,15.85-25.81,20.84-40.12c6.06-17.38,10.31-35.32,16.53-52.65c0.99-2.76-3.41-3.94-4.39-1.21
					c-10.08,28.13-14.83,58.98-31.56,84.31c-9.25,14-21.79,23.96-35.95,32.71c-15.08,9.32-31.17,17.57-48.45,21.91
					c-19.57,4.91-39.72,3.52-56.92-7.61C144.76,784.97,142.48,788.89,144.93,790.48"/>
			</g>
			<g class="st2">
				<defs>
					<rect id="SVGID_13_" x="83.08" y="128.17" width="777.08" height="775"/>
				</defs>
				<clipPath id="SVGID_14_">
					<use xlink:href="#SVGID_13_"  style="overflow:visible;"/>
				</clipPath>
			</g>
			<g class="st2">
				<defs>
					<rect id="SVGID_15_" x="83.08" y="128.17" width="777.08" height="775"/>
				</defs>
				<clipPath id="SVGID_16_">
					<use xlink:href="#SVGID_15_"  style="overflow:visible;"/>
				</clipPath>
				<path class="st6" d="M169.74,798.08c1.17-7.59,3.71-18.62,9.76-30.63c12.88-25.58,33.1-38.55,44.09-45.41
					c33.6-20.96,67.86-21.88,83.48-21.27c-3.45,13.27-11.32,35.5-30.35,55.87C236.31,799.83,179.4,798.46,169.74,798.08"/>
				<path class="st7" d="M169.74,798.08c1.17-7.59,3.71-18.62,9.76-30.63c12.88-25.58,33.1-38.55,44.09-45.41
					c33.6-20.96,67.86-21.88,83.48-21.27c-3.45,13.27-11.32,35.5-30.35,55.87C236.31,799.83,179.4,798.46,169.74,798.08z"/>
			</g>
			<g class="st2">
				<defs>
					<rect id="SVGID_17_" x="83.08" y="128.17" width="777.08" height="775"/>
				</defs>
				<clipPath id="SVGID_18_">
					<use xlink:href="#SVGID_17_"  style="overflow:visible;"/>
				</clipPath>
			</g>
			<g class="st2">
				<defs>
					<rect id="SVGID_19_" x="83.08" y="128.17" width="777.08" height="775"/>
				</defs>
				<clipPath id="SVGID_20_">
					<use xlink:href="#SVGID_19_"  style="overflow:visible;"/>
				</clipPath>
				<path class="st8" d="M718.7,274.43c18.66,12.39,20.91,37.65,12.37,56.74c-9.63,21.55-29.29,35.86-48.77,48
					c-12.05,7.51-24.39,14.58-35.85,23c-3.11,2.29-0.09,7.54,3.07,5.23c21.46-15.77,46.31-26.85,65.94-45.1
					c17.34-16.11,30.52-39.53,25.57-63.82c-2.42-11.86-9.12-22.55-19.26-29.28C718.5,267.04,715.46,272.28,718.7,274.43"/>
				<path class="st8" d="M718.85,273.86c3.91,0,3.91-6.05,0-6.05C714.95,267.8,714.94,273.86,718.85,273.86"/>
				<path class="st8" d="M717.57,273.73c0.06,0.02,0.12,0.04,0.18,0.06c-0.24-0.1-0.49-0.2-0.73-0.31c0.19,0.08,0.36,0.18,0.51,0.3
					c-0.21-0.16-0.41-0.31-0.62-0.48c0.16,0.12,0.3,0.26,0.42,0.42c-0.16-0.21-0.32-0.41-0.47-0.61c0.09,0.12,0.16,0.24,0.23,0.37
					c1.75-1.02,3.49-2.04,5.24-3.06l-1.46-2.04c-1.59,1.22-3.18,2.45-4.77,3.67c0.52,0.55,1.05,1.1,1.58,1.65
					c0.28,0.29,0.6,0.5,0.98,0.62c0.36,0.19,0.75,0.28,1.17,0.26c0.42,0.02,0.81-0.07,1.17-0.26c0.38-0.12,0.7-0.33,0.97-0.62
					c0.16-0.21,0.32-0.41,0.47-0.61c0.28-0.47,0.42-0.98,0.42-1.53c-0.04-0.27-0.07-0.54-0.11-0.81c-0.15-0.51-0.41-0.96-0.78-1.34
					c-0.53-0.55-1.05-1.1-1.58-1.66c-0.28-0.29-0.6-0.5-0.98-0.62c-0.36-0.19-0.75-0.28-1.17-0.26c-0.27,0.03-0.54,0.07-0.81,0.11
					c-0.39,0.09-0.74,0.28-1.03,0.54c-0.23,0.14-0.41,0.32-0.55,0.54c-0.27,0.29-0.45,0.64-0.54,1.03
					c-0.04,0.27-0.08,0.54-0.11,0.81c0,0.54,0.14,1.05,0.41,1.53c0.49,0.68,0.97,1.37,1.46,2.05c0.19,0.35,0.45,0.64,0.78,0.85
					c0.29,0.27,0.64,0.45,1.03,0.54c0.41,0.13,0.81,0.15,1.21,0.05c0.4-0.02,0.78-0.14,1.13-0.36c0.2-0.15,0.41-0.31,0.61-0.47
					c0.38-0.38,0.63-0.82,0.78-1.34c0.04-0.27,0.07-0.54,0.11-0.81c0-0.55-0.14-1.06-0.42-1.53c-0.18-0.36-0.46-0.67-0.7-0.98
					c-0.1-0.12-0.21-0.24-0.33-0.35c-0.3-0.26-0.63-0.53-0.97-0.72c-0.36-0.2-0.75-0.36-1.14-0.48c-0.4-0.13-0.8-0.15-1.21-0.05
					c-0.4,0.02-0.78,0.14-1.13,0.36c-0.35,0.19-0.64,0.45-0.85,0.78c-0.27,0.29-0.45,0.64-0.54,1.03c-0.04,0.27-0.08,0.54-0.11,0.81
					c0,0.54,0.14,1.06,0.41,1.53c0.16,0.2,0.32,0.41,0.48,0.61C716.61,273.32,717.05,273.58,717.57,273.73"/>
				<path class="st8" d="M714.25,286.67c0.25,0.72,0.5,1.45,0.75,2.17c5.86-1.61,11.71-3.22,17.56-4.83
					c-0.48-1.38-0.97-2.75-1.45-4.13c-1.62-4.63-6.23-7.71-11.2-6.34c-4.67,1.28-7.77,6.45-6.36,11.17
					c3.34,11.14,7.4,23.37,4.25,35.03c-2.7,10-9.95,17.94-17.47,24.74c-8.82,7.98-18.58,14.9-28.45,21.5
					c-5.25,3.51-10.57,6.91-15.93,10.25c-5.31,3.31-10.67,7.34-16.37,9.92c1.53-0.41,3.07-0.83,4.6-1.24
					c-0.28,0.03-0.56,0.06-0.84,0.09c1.53,0.41,3.06,0.82,4.59,1.24c-0.2-0.14-0.4-0.28-0.6-0.42c1.51,2.61,3.01,5.23,4.51,7.84
					c0.02-0.31,0.04-0.62,0.06-0.93l-2.67,6.42c3.89-4.63,9.26-8.48,13.8-12.48c4.75-4.19,9.53-8.36,14.32-12.5
					c9.58-8.29,19.25-16.48,28.98-24.59c-4.29-4.28-8.58-8.56-12.88-12.84c-1.55,1.61-0.67,0.42-0.19,0.39
					c2.62,4.55,5.24,9.11,7.86,13.67c11.97-16.83,27.63-34.39,28.05-56.12c0.22-11.69-17.99-11.69-18.21,0
					c-0.16,8.46-4.18,15.93-8.67,22.9c-5.29,8.23-11.22,16.08-16.9,24.05c-3.93,5.53,1.3,14.05,7.86,13.67
					c5.08-0.3,9.5-2.01,13.06-5.72c3.4-3.54,3.53-9.32,0-12.84c-3.74-3.73-9.09-3.15-12.88,0c-13.48,11.23-26.82,22.62-40,34.19
					c-3.3,2.89-6.58,5.8-9.86,8.71c-3.3,2.93-8.34,6.21-9.57,10.67c-1.72,6.23,2.71,12.73,9.32,12.85
					c4.57,0.08,8.54-3.09,12.24-5.36c14.35-8.78,28.64-17.73,42.07-27.88c12.38-9.35,25.15-19.54,32.76-33.35
					c4.48-8.14,6.86-17.2,6.67-26.51c-0.2-10.32-3.04-20.37-5.98-30.18c-5.86,1.61-11.71,3.22-17.56,4.83
					c0.48,1.38,0.97,2.75,1.45,4.13c1.63,4.63,6.23,7.71,11.2,6.34c4.52-1.24,7.97-6.51,6.36-11.17c-0.25-0.72-0.5-1.45-0.75-2.17
					c-1.6-4.63-6.24-7.7-11.2-6.34C716.08,276.73,712.64,282.01,714.25,286.67"/>
			</g>
			<g class="st2">
				<defs>
					<rect id="SVGID_21_" x="83.08" y="128.17" width="777.08" height="775"/>
				</defs>
				<clipPath id="SVGID_22_">
					<use xlink:href="#SVGID_21_"  style="overflow:visible;"/>
				</clipPath>
				<path class="st9" d="M353.68,687.79c-2.38,14.57-7.04,35.19-16.98,58.38c-5.75,13.4-11.82,27.56-23.49,42.53
					c-4.6,5.89-41.81,52.27-94.32,52.98c-7.54,0.1-23.37,0.03-40.47-9.01c-5.85-3.08-15.51-8.15-23.49-19.1
					c-9-12.34-10.76-25.05-11.2-30.99"/>
				<path class="st10" d="M285.38,815.16c3.91,0,3.91-6.05,0-6.05C281.47,809.1,281.46,815.16,285.38,815.16"/>
				<path class="st10" d="M335.59,687.08c-3.7,31.98-17.26,63.04-38.04,87.64c-3.17,3.75-3.69,9.17,0,12.85
					c3.26,3.25,9.68,3.76,12.88,0c4.83-5.68,9.65-11.35,14.48-17.03c-4.77-3.67-9.53-7.34-14.3-11c-9.06,14.49-20.44,27.18-33.69,38
					c-3.47,2.83-3.29,8.69-0.71,11.93c2.77,3.46,7.78,4.72,11.75,2.34c7.23-4.35,13.15-10.21,17.63-17.35
					c5.41-8.62-7.37-18.8-14.3-11.01c-21.95,24.67-53.83,46.44-88.52,37.95v17.51c9.65-2.83,19.31-5.66,28.96-8.49
					c11.22-3.29,6.44-20.83-4.84-17.52c-9.65,2.83-19.31,5.67-28.96,8.5c-8.39,2.46-8.94,15.33,0,17.51
					c41.13,10.08,79.76-12.86,106.24-42.62c-4.77-3.67-9.54-7.34-14.3-11c-2.83,4.51-6.54,8.09-11.1,10.83
					c3.68,4.75,7.36,9.51,11.04,14.26c14.41-11.76,26.69-25.93,36.54-41.68c5.37-8.59-7.52-18.98-14.3-11.01
					c-4.83,5.68-9.65,11.35-14.48,17.03c4.29,4.28,8.58,8.56,12.88,12.85c24.17-28.62,39.08-63.33,43.37-100.48
					c0.56-4.88-4.59-9.08-9.11-9.08C339.31,678,336.16,682.19,335.59,687.08"/>
				<path class="st10" d="M237.43,831.95c31.24-16.26,59.85-37.55,84.43-62.74c8.18-8.38-4.68-21.24-12.88-12.85
					c-23.58,24.17-50.76,44.3-80.74,59.9c-4.36,2.27-5.66,8.34-3.27,12.43C227.55,833.1,233.05,834.22,237.43,831.95"/>
				<path class="st10" d="M162.25,822.72c9.91,5.16,20.55,10.23,32.01,7.76c2.87-0.62,2.93-5.26,0-5.84
					c-3.79-0.75-7.64-1.07-11.5-0.84c0.72,1.73,1.43,3.45,2.15,5.17c1.31-1.02,3.46-0.94,4.75,0.08c0.49,0.38,0.93,0.98,1.19,1.55
					c0.18,0.38,0.29,0.87,0.33,1.28c0.02,0.29,0.01,0.58-0.01,0.86c0.19-0.5,0.15-0.53-0.11-0.1c0.36-0.36,0.73-0.72,1.09-1.08
					c0.44-0.32,0.88,0.16,0.19-0.27c-0.33-0.2-0.77-0.31-1.12-0.45c-0.84-0.34-1.68-0.68-2.53-1.02c-1.59-0.65-3.18-1.29-4.77-1.94
					c-3.18-1.29-6.36-2.58-9.53-3.87c-1.52-0.61-3.34,0.67-3.73,2.11c-0.48,1.73,0.59,3.11,2.12,3.73c4.4,1.78,8.79,3.57,13.18,5.35
					c1.99,0.81,4.33,2.22,6.51,2.34c2.67,0.15,4.44-1.89,4.72-4.4c0.42-3.76-1.6-7.6-4.82-9.55c-3.8-2.29-8.39-1.5-11.75,1.11
					c-2.08,1.62-0.33,5.32,2.15,5.17c3.32-0.2,6.62-0.03,9.89,0.62v-5.84c-9.68,2.09-19.03-2.82-27.33-7.15
					C161.85,815.69,158.78,820.91,162.25,822.72"/>
			</g>
			<g class="st2">
				<defs>
					<rect id="SVGID_23_" x="83.08" y="128.17" width="777.08" height="775"/>
				</defs>
				<clipPath id="SVGID_24_">
					<use xlink:href="#SVGID_23_"  style="overflow:visible;"/>
				</clipPath>
			</g>
			<g class="st2">
				<defs>
					<rect id="SVGID_25_" x="83.08" y="128.17" width="777.08" height="775"/>
				</defs>
				<clipPath id="SVGID_26_">
					<use xlink:href="#SVGID_25_"  style="overflow:visible;"/>
				</clipPath>
			</g>
			<g class="st2">
				<defs>
					<rect id="SVGID_27_" x="83.08" y="128.17" width="777.08" height="775"/>
				</defs>
				<clipPath id="SVGID_28_">
					<use xlink:href="#SVGID_27_"  style="overflow:visible;"/>
				</clipPath>
				<g class="st11">
					<g>
						<defs>
							<rect id="SVGID_29_" x="336.05" y="401.24" width="276.69" height="307.95"/>
						</defs>
						<clipPath id="SVGID_30_">
							<use xlink:href="#SVGID_29_"  style="overflow:visible;"/>
						</clipPath>
					</g>
				</g>
			</g>
			<g class="st2">
				<defs>
					<rect id="SVGID_31_" x="83.08" y="128.17" width="777.08" height="775"/>
				</defs>
				<clipPath id="SVGID_32_">
					<use xlink:href="#SVGID_31_"  style="overflow:visible;"/>
				</clipPath>
				<g class="st12">
					<g>
						<defs>
							<rect id="SVGID_33_" x="304.42" y="358.93" width="332.78" height="315.18"/>
						</defs>
						<clipPath id="SVGID_34_">
							<use xlink:href="#SVGID_33_"  style="overflow:visible;"/>
						</clipPath>
					</g>
				</g>
			</g>
			<g class="st2">
				<defs>
					<rect id="SVGID_35_" x="83.08" y="128.17" width="777.08" height="775"/>
				</defs>
				<clipPath id="SVGID_36_">
					<use xlink:href="#SVGID_35_"  style="overflow:visible;"/>
				</clipPath>
				<path class="st13" d="M446.31,604.06v-18.95v-24.26c0-10.84,8.82-19.63,19.69-19.63h80.76c13.3,0,22.93,12.93,18.77,25.53
					c-5.52,16.77-16.58,38.3-38.79,54.69c-34.34,25.34-78.59,26.05-112.6,10.7c-51.62-23.3-63.6-76.33-65.68-85.56
					c-1.47-6.52-13.16-62.68,25.47-109.63c31.92-38.8,84.27-54.38,131.37-42.78c84.37,20.78,123.77,128.14,85.2,202.59
					c-28.92,55.82-96.74,88.14-158.75,76.97c-62-11.17-113.76-64.06-124.96-125.9c-11.23-61.98,18.06-128.72,70.14-163.91
					c76.77-51.86,187.03-30.52,238.29,46.34c31.12,46.66,28.27,96.97,26.81,112.31c-10.41,109.17-115.37,163.89-124.99,168.71"/>
			</g>
			<g class="st2">
				<defs>
					<rect id="SVGID_37_" x="83.08" y="128.17" width="777.08" height="775"/>
				</defs>
				<clipPath id="SVGID_38_">
					<use xlink:href="#SVGID_37_"  style="overflow:visible;"/>
				</clipPath>
				<path class="st14" d="M394.37,508.31l-1.78,35.99c0.02,10.71,8.75,19.37,19.48,19.34c10.73-0.03,19.45,8.63,19.48,19.34
					l0.05,20.72"/>
			</g>
			<g class="st2">
				<defs>
					<rect id="SVGID_39_" x="83.08" y="128.17" width="777.08" height="775"/>
				</defs>
				<clipPath id="SVGID_40_">
					<use xlink:href="#SVGID_39_"  style="overflow:visible;"/>
				</clipPath>
				<path class="st15" d="M554.76,565.31h-95.02c-5.18,0-9.39-4.19-9.39-9.36c0-5.17,4.2-9.36,9.39-9.36h95.02
					c5.18,0,9.38,4.19,9.38,9.36C564.14,561.12,559.94,565.31,554.76,565.31"/>
				<path class="st16" d="M554.76,565.31h-95.02c-5.18,0-9.39-4.19-9.39-9.36c0-5.17,4.2-9.36,9.39-9.36h95.02
					c5.18,0,9.38,4.19,9.38,9.36C564.14,561.12,559.94,565.31,554.76,565.31z"/>
			</g>
			<g class="st2">
				<defs>
					<rect id="SVGID_41_" x="83.08" y="128.17" width="777.08" height="775"/>
				</defs>
				<clipPath id="SVGID_42_">
					<use xlink:href="#SVGID_41_"  style="overflow:visible;"/>
				</clipPath>
				<g class="st17">
					<g>
						<defs>
							<rect id="SVGID_43_" x="208.85" y="291.18" width="495.25" height="469.76"/>
						</defs>
						<clipPath id="SVGID_44_">
							<use xlink:href="#SVGID_43_"  style="overflow:visible;"/>
						</clipPath>
					</g>
				</g>
			</g>
		</g>
	</g>
</g>
<g id="Calque_4">
	<g>
		<g>
			<path class="st18" d="M1960.46,564.82c-0.37-0.04-0.73-0.08-1.1-0.13c1.11,0.15,2.22,0.3,3.32,0.45
				c-3.01-0.41-5.93-1.22-8.74-2.38c1,0.42,1.99,0.84,2.99,1.26c-3.11-1.32-6.01-3.05-8.69-5.12c0.84,0.65,1.69,1.3,2.53,1.95
				c-2.87-2.25-5.42-4.85-7.66-7.72c0.65,0.84,1.3,1.69,1.95,2.53c-2.36-3.08-4.31-6.43-5.83-10.01c0.42,1,0.84,1.99,1.26,2.99
				c-1.4-3.39-2.36-6.92-2.87-10.56c0.15,1.11,0.3,2.22,0.45,3.32c-0.52-4-0.5-8.03,0.01-12.03c-0.15,1.11-0.3,2.22-0.45,3.32
				c0.62-4.58,1.86-9.03,3.62-13.3c-0.42,1-0.84,1.99-1.26,2.99c1.96-4.63,4.51-8.96,7.57-12.95c-0.65,0.84-1.3,1.69-1.95,2.53
				c3.2-4.13,6.91-7.83,11.03-11.04c-0.84,0.65-1.69,1.3-2.53,1.95c4.81-3.71,10.09-6.72,15.68-9.09c-1,0.42-1.99,0.84-2.99,1.26
				c7.26-3.05,14.92-5,22.71-6.07c-1.11,0.15-2.22,0.3-3.32,0.45c9.64-1.28,19.42-1.22,29.06,0.06c-1.11-0.15-2.22-0.3-3.32-0.45
				c9.44,1.28,18.68,3.75,27.46,7.45c-1-0.42-1.99-0.84-2.99-1.26c7.49,3.19,14.6,7.25,21.05,12.22c-0.84-0.65-1.69-1.3-2.53-1.95
				c5.34,4.16,10.18,8.91,14.34,14.26c-0.65-0.84-1.3-1.69-1.95-2.53c3.73,4.86,6.85,10.14,9.26,15.78c-0.42-1-0.84-1.99-1.26-2.99
				c2.48,5.89,4.16,12.08,5.05,18.4c-0.15-1.11-0.3-2.22-0.45-3.32c0.82,6.12,0.88,12.31,0.08,18.44c0.15-1.11,0.3-2.22,0.45-3.32
				c-0.72,5.22-2.04,10.35-4.09,15.21c0.42-1,0.84-1.99,1.26-2.99c-1.91,4.45-4.41,8.59-7.35,12.42c0.65-0.84,1.3-1.69,1.95-2.53
				c-4.98,6.41-11.04,11.84-17.44,16.8c0.84-0.65,1.69-1.3,2.53-1.95c-11.88,9.16-24.77,17.27-35.08,28.29
				c-11.06,11.82-19.06,26.51-23.43,42.08c-2.56,9.1-3.87,18.71-3.88,28.16c0,3.2,1.4,6.57,3.66,8.84c2.17,2.17,5.73,3.8,8.84,3.66
				c3.23-0.14,6.59-1.21,8.84-3.66c2.25-2.45,3.66-5.45,3.66-8.84c0-4.08,0.28-8.16,0.82-12.2c-0.15,1.11-0.3,2.22-0.45,3.32
				c1.12-8.11,3.29-16.04,6.45-23.6c-0.42,1-0.84,1.99-1.26,2.99c3.03-7.14,6.91-13.91,11.64-20.05c-0.65,0.84-1.3,1.69-1.95,2.53
				c5.62-7.2,12.48-13.22,19.67-18.78c-0.84,0.65-1.69,1.3-2.53,1.95c11.73-9.03,24.58-16.98,34.49-28.12
				c2.81-3.16,5.44-6.52,7.76-10.05c2.42-3.67,4.21-7.57,5.91-11.62c3.26-7.8,4.75-16.39,5.07-24.82c0.14-3.83-0.04-7.68-0.53-11.48
				c-0.61-4.78-1.35-9.5-2.67-14.14c-2.03-7.11-5.02-14.09-8.87-20.4c-7.36-12.08-17.66-22.04-29.49-29.7
				c-5.97-3.87-12.34-6.86-18.91-9.56c-5.73-2.35-11.67-4.19-17.72-5.51c-12.42-2.7-25.39-3.72-38.05-2.4
				c-13.64,1.42-26.84,4.81-38.93,11.44c-11.91,6.54-22.22,16.38-28.96,28.21c-2.23,3.91-4.05,8.12-5.51,12.37
				c-1.49,4.33-2.23,8.75-2.8,13.28c-0.45,3.58-0.54,7.2-0.16,10.79c0.48,4.54,1.19,9.03,2.76,13.33c2.84,7.77,7,14.75,12.71,20.77
				c5.65,5.96,12.59,10.28,20.25,13.13c3.8,1.42,7.79,2,11.82,2.42c2.99,0.31,6.8-1.62,8.84-3.66c2.17-2.17,3.8-5.73,3.66-8.84
				c-0.14-3.23-1.21-6.59-3.66-8.84c-0.84-0.65-1.69-1.3-2.53-1.95C1964.82,565.4,1962.72,564.83,1960.46,564.82L1960.46,564.82z"/>
		</g>
	</g>
	<g>
		<g>
			<path class="st18" d="M2003.89,758.77c0.1,0.28,0.18,0.56,0.22,0.85c-0.15-1.11-0.3-2.22-0.45-3.32c0.04,0.3,0.03,0.6-0.01,0.9
				c0.15-1.11,0.3-2.22,0.45-3.32c-0.05,0.32-0.14,0.63-0.26,0.93c0.42-1,0.84-1.99,1.26-2.99c-0.16,0.36-0.36,0.69-0.59,0.99
				c0.65-0.84,1.3-1.69,1.95-2.53c-0.29,0.36-0.61,0.68-0.98,0.97c0.84-0.65,1.69-1.3,2.53-1.95c-0.47,0.36-0.98,0.66-1.52,0.89
				c1-0.42,1.99-0.84,2.99-1.26c-0.49,0.2-0.99,0.34-1.51,0.41c1.11-0.15,2.22-0.3,3.32-0.45c-0.45,0.06-0.89,0.06-1.34,0
				c1.11,0.15,2.22,0.3,3.32,0.45c-0.32-0.05-0.64-0.13-0.94-0.25c1,0.42,1.99,0.84,2.99,1.26c-0.28-0.12-0.53-0.27-0.78-0.45
				c0.84,0.65,1.69,1.3,2.53,1.95c-0.25-0.2-0.47-0.42-0.66-0.67c0.65,0.84,1.3,1.69,1.95,2.53c-0.18-0.25-0.33-0.5-0.46-0.78
				c0.42,1,0.84,1.99,1.26,2.99c-0.12-0.29-0.2-0.59-0.25-0.91c0.15,1.11,0.3,2.22,0.45,3.32c-0.03-0.31-0.03-0.61,0-0.91
				c-0.15,1.11-0.3,2.22-0.45,3.32c0.05-0.36,0.15-0.71,0.29-1.06c-0.42,1-0.84,1.99-1.26,2.99c0.18-0.43,0.42-0.83,0.7-1.21
				c-0.65,0.84-1.3,1.69-1.95,2.53c0.35-0.45,0.76-0.86,1.22-1.21c-0.84,0.65-1.69,1.3-2.53,1.95c0.43-0.33,0.9-0.6,1.4-0.81
				c-1,0.42-1.99,0.84-2.99,1.26c0.41-0.16,0.82-0.28,1.26-0.35c-1.11,0.15-2.22,0.3-3.32,0.45c0.36-0.05,0.73-0.05,1.09-0.01
				c-1.11-0.15-2.22-0.3-3.32-0.45c0.31,0.04,0.6,0.12,0.89,0.23c-1-0.42-1.99-0.84-2.99-1.26c0.29,0.13,0.57,0.28,0.82,0.48
				c-0.84-0.65-1.69-1.3-2.53-1.95c0.12,0.1,0.23,0.2,0.34,0.31c2.95-7.11,5.89-14.23,8.84-21.34c-1.25-0.01-2.51,0.21-3.73,0.49
				c-0.04,0.01-0.08,0.02-0.11,0.04c-1,0.42-1.99,0.84-2.99,1.26c-0.06,0.04-0.13,0.07-0.19,0.11c-0.84,0.65-1.69,1.3-2.53,1.95
				c-0.03,0.02-0.06,0.04-0.08,0.07c-0.02,0.02-0.04,0.04-0.05,0.06c-0.7,0.82-1.35,1.67-1.97,2.55c-0.63,1-1.1,2.12-1.41,3.27
				c-0.69,2.51-0.78,5.67,0.12,8.15c1.07,2.97,1.55,3.79,3.59,6.18c0.84,0.99,1.95,1.76,3.06,2.42c0.03,0.02,0.07,0.03,0.1,0.05
				c1,0.42,1.99,0.84,2.99,1.26c0.07,0.02,0.14,0.04,0.2,0.06c1.11,0.15,2.22,0.3,3.32,0.45c0.03,0.01,0.07,0.01,0.1,0.01
				c0.05,0,0.11-0.01,0.16-0.01c2.28-0.04,4.61-0.61,6.58-1.8c1.03-0.62,1.98-1.37,2.86-2.19c1.22-1.13,2.08-2.47,2.58-4.02
				c0.78-1.49,1.14-3.09,1.08-4.82c0.06-1.72-0.29-3.33-1.08-4.82c-0.5-1.55-1.37-2.89-2.58-4.02c-0.84-0.65-1.69-1.3-2.53-1.95
				c-1.95-1.13-4.05-1.7-6.31-1.71c-1.11,0.15-2.22,0.3-3.32,0.45c-2.12,0.59-3.96,1.67-5.52,3.21c-0.05,0.05-0.11,0.09-0.16,0.14
				c0.84-0.65,1.69-1.3,2.53-1.95c-0.07,0.05-0.14,0.09-0.22,0.13c1-0.42,1.99-0.84,2.99-1.26c-0.07,0.03-0.14,0.05-0.22,0.06
				c1.11-0.15,2.22-0.3,3.32-0.45c-0.09,0.01-0.17,0.01-0.26,0c1.11,0.15,2.22,0.3,3.32,0.45c-0.07-0.01-0.14-0.03-0.2-0.06
				c1,0.42,1.99,0.84,2.99,1.26c-0.1-0.04-0.2-0.1-0.29-0.17c0.84,0.65,1.69,1.3,2.53,1.95c-0.13-0.1-0.24-0.22-0.34-0.35
				c0.65,0.84,1.3,1.69,1.95,2.53c-0.15-0.2-0.27-0.41-0.36-0.63c0.42,1,0.84,1.99,1.26,2.99c-0.09-0.23-0.16-0.46-0.19-0.71
				c0.15,1.11,0.3,2.22,0.45,3.32c-0.02-0.19-0.03-0.37,0-0.56c-0.15,1.11-0.3,2.22-0.45,3.32c0.02-0.11,0.05-0.22,0.09-0.33
				c-0.42,1-0.84,1.99-1.26,2.99c0.04-0.08,0.08-0.16,0.13-0.23c-0.65,0.84-1.3,1.69-1.95,2.53c0.05-0.05,0.09-0.1,0.15-0.15
				c-0.84,0.65-1.69,1.3-2.53,1.95c0.06-0.04,0.12-0.08,0.19-0.11c-1,0.42-1.99,0.84-2.99,1.26c0.1-0.04,0.2-0.06,0.3-0.07
				c-1.11,0.15-2.22,0.3-3.32,0.45c0.07-0.01,0.14-0.01,0.21-0.01c1.11-0.15,2.22-0.3,3.32-0.45c1-0.42,1.99-0.84,2.99-1.26
				c0.84-0.65,1.69-1.3,2.53-1.95c1.22-1.13,2.08-2.47,2.58-4.02c0.57-0.97,0.85-2.03,0.85-3.15c0.3-1.11,0.3-2.22,0-3.32
				c0-1.13-0.29-2.18-0.85-3.15c-0.5-1.55-1.37-2.89-2.58-4.02c-0.91-0.9-1.98-1.63-3.02-2.37c-0.19-0.13-0.39-0.24-0.6-0.34
				c-1.09-0.51-2.29-1.12-3.5-1.44c-0.11-0.03-0.22-0.05-0.33-0.07c-0.58-0.1-1.38-0.19-1.78-0.24c-0.4-0.05-1.23-0.2-1.83-0.24
				c-0.21-0.01-0.42-0.02-0.63,0c-0.65,0.05-1.36,0.17-1.96,0.25c-0.61,0.08-1.35,0.14-2,0.28c-1.48,0.32-2.9,1.05-4.23,1.7
				c-1.31,0.64-2.63,1.84-3.64,2.65c-0.38,0.3-0.73,0.63-1.04,1.01c-0.79,0.96-1.6,1.96-2.3,2.99c-0.14,0.21-0.26,0.42-0.37,0.64
				c-0.63,1.3-1.36,2.7-1.65,4.15c-0.65,3.35-0.61,4.47-0.02,7.81c0.04,0.23,0.09,0.45,0.17,0.66c0.44,1.2,0.88,2.44,1.53,3.55
				c0.63,1.09,1.49,2.06,2.29,3.01c0.16,0.19,0.33,0.35,0.51,0.51c2.42,2.05,3.48,2.72,6.51,3.77c0.19,0.07,0.39,0.12,0.59,0.16
				c1.14,0.22,2.37,0.35,3.53,0.48c0.12,0.01,0.25,0.03,0.37,0.04c0.21,0.01,0.42,0.01,0.63-0.01c1.33-0.09,2.65-0.28,3.96-0.53
				c1.44-0.27,3.06-1.13,4.24-1.64c0.43-0.19,0.85-0.41,1.23-0.69c1.2-0.85,2.59-1.75,3.59-2.91c0.94-1.09,2.08-2.34,2.71-3.72
				c0.48-1.05,0.99-2.16,1.36-3.25c0.04-0.11,0.07-0.23,0.1-0.35c0.3-1.3,0.48-2.64,0.54-3.97c0-0.11,0-0.22,0-0.33
				c0-0.06-0.01-0.11-0.01-0.17c-0.08-0.98-0.3-2.47-0.46-3.45c-0.05-0.28-0.11-0.54-0.21-0.81c-0.39-1.63-1.13-3.04-2.24-4.25
				c-0.88-1.36-2.05-2.43-3.51-3.22c-1.43-0.91-2.98-1.41-4.65-1.48c-1.66-0.37-3.32-0.3-4.98,0.22c-1,0.42-1.99,0.84-2.99,1.26
				c-1.88,1.11-3.37,2.61-4.48,4.48c-0.42,1-0.84,1.99-1.26,2.99C2003.29,754.34,2003.29,756.55,2003.89,758.77L2003.89,758.77z"/>
		</g>
	</g>
	<g id="Calque_5">
		<g>
			<g>
				<defs>
					<rect id="SVGID_45_" x="81" y="128.17" width="783.33" height="775"/>
				</defs>
				<clipPath id="SVGID_46_">
					<use xlink:href="#SVGID_45_"  style="overflow:visible;"/>
				</clipPath>
				<g class="st19">
					<defs>
						<rect id="SVGID_47_" x="81" y="128.17" width="783.33" height="775"/>
					</defs>
					<clipPath id="SVGID_48_">
						<use xlink:href="#SVGID_47_"  style="overflow:visible;"/>
					</clipPath>
					<g class="st20">
						<g>
							<defs>
								<rect id="SVGID_49_" x="120.91" y="160.48" width="686.73" height="708.64"/>
							</defs>
							<clipPath id="SVGID_50_">
								<use xlink:href="#SVGID_49_"  style="overflow:visible;"/>
							</clipPath>
						</g>
					</g>
				</g>
				<g class="st19">
					<defs>
						<rect id="SVGID_51_" x="303.5" y="354.4" width="346.35" height="325.86"/>
					</defs>
					<clipPath id="SVGID_52_">
						<use xlink:href="#SVGID_51_"  style="overflow:visible;"/>
					</clipPath>
				</g>
				<g class="st19">
					<defs>
						<rect id="SVGID_53_" x="81" y="128.17" width="783.33" height="775"/>
					</defs>
					<clipPath id="SVGID_54_">
						<use xlink:href="#SVGID_53_"  style="overflow:visible;"/>
					</clipPath>
					<path class="st21" d="M676.12,515.27c0,111.83-91.93,202.48-205.33,202.48c-113.41,0-205.33-90.65-205.33-202.48
						s91.93-202.49,205.33-202.49C584.19,312.78,676.12,403.44,676.12,515.27z"/>
				</g>
				<g class="st19">
					<defs>
						<rect id="SVGID_55_" x="81" y="128.17" width="783.33" height="775"/>
					</defs>
					<clipPath id="SVGID_56_">
						<use xlink:href="#SVGID_55_"  style="overflow:visible;"/>
					</clipPath>
					<path class="st22" d="M636.14,391.07c31.66-23.79,62.18-51.17,77.5-88.37c4.52-10.98,7.5-22.48,9.16-34.21
						c0.4-2.86-4.02-4.09-4.42-1.2c-2.75,19.52-9.39,38.12-19.86,54.89c-10.23,16.39-23.58,30.62-38.04,43.43
						c-8.55,7.57-17.5,14.67-26.64,21.54C631.5,388.89,633.78,392.84,636.14,391.07"/>
					<path class="st22" d="M307.97,641.67c-4.37,6-7.79,12.78-13.18,18c-6.99,6.78-17.79,7.87-27.09,8.98
						c-10.33,1.24-20.83,1.89-30.81,5.05c-9.6,3.04-18.31,8.96-26.79,14.24c-16.35,10.17-31.82,21.72-45.14,35.61
						c-12.35,12.88-22.5,28.74-25.12,46.59c-2.29,15.61,1.54,34.25,14.26,44.78c11.08,9.18,26.31,10.89,40.23,9.68
						c35.12-3.04,66.77-21.02,92.46-44.06c7.73-6.94,15.66-14.16,22.18-22.24c6.69-8.3,12.07-17.44,16.23-27.21
						c8.09-19.01,11.41-39.49,16.37-59.41c0.71-2.84-3.71-4.05-4.42-1.2c-4.26,17.05-7.26,34.49-13.15,51.1
						c-6.19,17.49-15.98,32.1-29.21,45.13c-24.78,24.43-53.44,44.45-88.25,51.54c-13.8,2.81-29.81,3.99-42.8-2.47
						c-14.98-7.45-20.85-24.74-19.87-40.51c1.13-18.09,11.22-34.67,23.47-47.63c12.66-13.39,27.29-24.58,42.88-34.43
						c9.4-5.94,19.15-12.71,29.95-15.77c10.96-3.1,22.42-3.38,33.63-5.08c8.84-1.34,17.66-3.13,24.23-9.5
						c5.67-5.5,9.3-12.6,13.89-18.91C313.67,641.59,309.69,639.32,307.97,641.67"/>
					<path class="st22" d="M722.2,266.28c-13.94-15.28-34.34-12.5-51.23-3.84c-9.14,4.69-17.14,10.93-24.95,17.51
						c-10.69,8.99-21.21,18.19-31.64,27.47c-11.89,10.59-23.67,21.31-35.46,32.01c-2.18,1.98,1.07,5.18,3.24,3.21
						c19.05-17.28,38.07-34.62,57.59-51.39c14.81-12.72,30.48-27.16,50.44-30.95c11-2.09,21.22,0.91,28.77,9.19
						C720.94,271.67,724.18,268.45,722.2,266.28"/>
					<path class="st22" d="M619.66,372.28c35.68-31.2,69.08-66.94,85.68-111.9c1.02-2.75-3.42-3.94-4.42-1.21
						c-16.32,44.18-49.47,79.26-84.51,109.89C614.19,371.01,617.45,374.21,619.66,372.28"/>
					<path class="st22" d="M143.35,790.48c32.5,20.86,71.47,8.14,102.36-9.29c15.25-8.61,30-18.21,40.99-31.98
						c9.53-11.95,15.98-25.81,21.01-40.12c6.11-17.38,10.39-35.32,16.66-52.65c0.99-2.76-3.44-3.94-4.43-1.21
						c-10.16,28.13-14.95,58.98-31.81,84.31c-9.32,14-21.97,23.96-36.24,32.71c-15.2,9.32-31.42,17.57-48.84,21.91
						c-19.73,4.91-40.04,3.52-57.38-7.61C143.17,784.97,140.87,788.89,143.35,790.48"/>
				</g>
				<g class="st19">
					<defs>
						<rect id="SVGID_57_" x="81" y="128.17" width="783.33" height="775"/>
					</defs>
					<clipPath id="SVGID_58_">
						<use xlink:href="#SVGID_57_"  style="overflow:visible;"/>
					</clipPath>
				</g>
				<g class="st19">
					<defs>
						<rect id="SVGID_59_" x="81" y="128.17" width="783.33" height="775"/>
					</defs>
					<clipPath id="SVGID_60_">
						<use xlink:href="#SVGID_59_"  style="overflow:visible;"/>
					</clipPath>
					<path class="st23" d="M168.35,798.08c1.18-7.59,3.74-18.62,9.83-30.63c12.99-25.58,33.36-38.55,44.44-45.41
						c33.87-20.96,68.4-21.88,84.15-21.27c-3.48,13.27-11.41,35.5-30.6,55.87C235.46,799.83,178.09,798.46,168.35,798.08"/>
					<path class="st24" d="M168.35,798.08c1.18-7.59,3.74-18.62,9.83-30.63c12.99-25.58,33.36-38.55,44.44-45.41
						c33.87-20.96,68.4-21.88,84.15-21.27c-3.48,13.27-11.41,35.5-30.6,55.87C235.46,799.83,178.09,798.46,168.35,798.08z"/>
				</g>
				<g class="st19">
					<defs>
						<rect id="SVGID_61_" x="81" y="128.17" width="783.33" height="775"/>
					</defs>
					<clipPath id="SVGID_62_">
						<use xlink:href="#SVGID_61_"  style="overflow:visible;"/>
					</clipPath>
				</g>
				<g class="st19">
					<defs>
						<rect id="SVGID_63_" x="81" y="128.17" width="783.33" height="775"/>
					</defs>
					<clipPath id="SVGID_64_">
						<use xlink:href="#SVGID_63_"  style="overflow:visible;"/>
					</clipPath>
					<path class="st25" d="M721.73,274.43c18.81,12.39,21.07,37.65,12.47,56.74c-9.71,21.55-29.53,35.86-49.16,48
						c-12.15,7.51-24.59,14.58-36.14,23c-3.13,2.29-0.09,7.54,3.09,5.23c21.63-15.77,46.68-26.85,66.47-45.1
						c17.48-16.11,30.76-39.53,25.77-63.82c-2.44-11.86-9.19-22.55-19.42-29.28C721.53,267.04,718.46,272.28,721.73,274.43"/>
					<path class="st25" d="M721.88,273.86c3.94,0,3.94-6.05,0-6.05C717.95,267.8,717.94,273.86,721.88,273.86"/>
					<path class="st25" d="M720.59,273.73c0.06,0.02,0.12,0.04,0.18,0.06c-0.24-0.1-0.49-0.2-0.73-0.31
						c0.19,0.08,0.36,0.18,0.52,0.3c-0.21-0.16-0.41-0.31-0.62-0.48c0.16,0.12,0.3,0.26,0.42,0.42c-0.16-0.21-0.32-0.41-0.48-0.61
						c0.09,0.12,0.17,0.24,0.23,0.37c1.76-1.02,3.52-2.04,5.28-3.06l-1.47-2.04c-1.6,1.22-3.2,2.45-4.8,3.67
						c0.53,0.55,1.06,1.1,1.59,1.65c0.28,0.29,0.61,0.5,0.99,0.62c0.36,0.19,0.76,0.28,1.18,0.26c0.42,0.02,0.82-0.07,1.18-0.26
						c0.38-0.12,0.71-0.33,0.98-0.62c0.16-0.21,0.32-0.41,0.48-0.61c0.28-0.47,0.42-0.98,0.42-1.53c-0.04-0.27-0.07-0.54-0.11-0.81
						c-0.15-0.51-0.41-0.96-0.79-1.34c-0.53-0.55-1.06-1.1-1.59-1.66c-0.28-0.29-0.61-0.5-0.99-0.62c-0.36-0.19-0.76-0.28-1.18-0.26
						c-0.27,0.03-0.54,0.07-0.81,0.11c-0.4,0.09-0.75,0.28-1.04,0.54c-0.23,0.14-0.42,0.32-0.55,0.54
						c-0.27,0.29-0.45,0.64-0.54,1.03c-0.04,0.27-0.08,0.54-0.11,0.81c0,0.54,0.14,1.05,0.42,1.53c0.49,0.68,0.98,1.37,1.47,2.05
						c0.19,0.35,0.46,0.64,0.79,0.85c0.29,0.27,0.64,0.45,1.04,0.54c0.41,0.13,0.82,0.15,1.22,0.05c0.41-0.02,0.79-0.14,1.14-0.36
						c0.21-0.15,0.41-0.31,0.62-0.47c0.38-0.38,0.64-0.82,0.79-1.34c0.04-0.27,0.07-0.54,0.11-0.81c0-0.55-0.14-1.06-0.42-1.53
						c-0.18-0.36-0.46-0.67-0.71-0.98c-0.1-0.12-0.21-0.24-0.34-0.35c-0.31-0.26-0.63-0.53-0.98-0.72c-0.36-0.2-0.75-0.36-1.15-0.48
						c-0.41-0.13-0.81-0.15-1.22-0.05c-0.41,0.02-0.79,0.14-1.14,0.36c-0.35,0.19-0.64,0.45-0.86,0.78
						c-0.27,0.29-0.45,0.64-0.54,1.03c-0.04,0.27-0.08,0.54-0.11,0.81c0,0.54,0.14,1.06,0.42,1.53c0.16,0.2,0.32,0.41,0.48,0.61
						C719.62,273.32,720.07,273.58,720.59,273.73"/>
					<path class="st25" d="M717.24,286.67c0.25,0.72,0.5,1.45,0.75,2.17c5.9-1.61,11.81-3.22,17.7-4.83
						c-0.49-1.38-0.98-2.75-1.46-4.13c-1.64-4.63-6.28-7.71-11.29-6.34c-4.71,1.28-7.84,6.45-6.41,11.17
						c3.37,11.14,7.46,23.37,4.29,35.03c-2.72,10-10.03,17.94-17.61,24.74c-8.89,7.98-18.73,14.9-28.68,21.5
						c-5.29,3.51-10.66,6.91-16.06,10.25c-5.35,3.31-10.76,7.34-16.5,9.92c1.55-0.41,3.09-0.83,4.64-1.24
						c-0.28,0.03-0.57,0.06-0.84,0.09c1.54,0.41,3.08,0.82,4.63,1.24c-0.2-0.14-0.4-0.28-0.61-0.42c1.52,2.61,3.03,5.23,4.55,7.84
						c0.02-0.31,0.04-0.62,0.06-0.93l-2.69,6.42c3.92-4.63,9.34-8.48,13.91-12.48c4.79-4.19,9.6-8.36,14.43-12.5
						c9.66-8.29,19.4-16.48,29.22-24.59c-4.33-4.28-8.65-8.56-12.98-12.84c-1.56,1.61-0.68,0.42-0.19,0.39
						c2.64,4.55,5.28,9.11,7.93,13.67c12.07-16.83,27.85-34.39,28.27-56.12c0.22-11.69-18.14-11.69-18.36,0
						c-0.17,8.46-4.22,15.93-8.74,22.9c-5.34,8.23-11.31,16.08-17.03,24.05c-3.97,5.53,1.31,14.05,7.93,13.67
						c5.12-0.3,9.58-2.01,13.17-5.72c3.43-3.54,3.56-9.32,0-12.84c-3.77-3.73-9.16-3.15-12.98,0
						c-13.59,11.23-27.03,22.62-40.32,34.19c-3.32,2.89-6.64,5.8-9.94,8.71c-3.32,2.93-8.41,6.21-9.65,10.67
						c-1.73,6.23,2.73,12.73,9.4,12.85c4.61,0.08,8.61-3.09,12.34-5.36c14.47-8.78,28.87-17.73,42.41-27.88
						c12.48-9.35,25.35-19.54,33.03-33.35c4.52-8.14,6.91-17.2,6.73-26.51c-0.2-10.32-3.06-20.37-6.03-30.18
						c-5.9,1.61-11.8,3.22-17.7,4.83c0.49,1.38,0.97,2.75,1.46,4.13c1.64,4.63,6.28,7.71,11.29,6.34c4.56-1.24,8.03-6.51,6.41-11.17
						c-0.25-0.72-0.5-1.45-0.76-2.17c-1.61-4.63-6.29-7.7-11.29-6.34C719.09,276.73,715.62,282.01,717.24,286.67"/>
				</g>
				<g class="st19">
					<defs>
						<rect id="SVGID_65_" x="81" y="128.17" width="783.33" height="775"/>
					</defs>
					<clipPath id="SVGID_66_">
						<use xlink:href="#SVGID_65_"  style="overflow:visible;"/>
					</clipPath>
					<path class="st26" d="M353.77,687.79c-2.4,14.57-7.1,35.19-17.12,58.38c-5.79,13.4-11.92,27.56-23.68,42.53
						c-4.64,5.89-42.15,52.27-95.08,52.98c-7.6,0.1-23.56,0.03-40.8-9.01c-5.89-3.08-15.63-8.15-23.68-19.1
						c-9.07-12.34-10.85-25.05-11.29-30.99"/>
					<path class="st27" d="M284.92,815.16c3.94,0,3.94-6.05,0-6.05C280.98,809.1,280.98,815.16,284.92,815.16"/>
					<path class="st27" d="M335.54,687.08c-3.73,31.98-17.4,63.04-38.35,87.64c-3.19,3.75-3.72,9.17,0,12.85
						c3.29,3.25,9.76,3.76,12.98,0c4.87-5.68,9.73-11.35,14.59-17.03c-4.8-3.67-9.61-7.34-14.42-11
						c-9.13,14.49-20.61,27.18-33.96,38c-3.49,2.83-3.32,8.69-0.72,11.93c2.79,3.46,7.85,4.72,11.84,2.34
						c7.29-4.35,13.26-10.21,17.77-17.35c5.45-8.62-7.43-18.8-14.42-11.01c-22.13,24.67-54.26,46.44-89.23,37.95v17.51
						c9.73-2.83,19.46-5.66,29.19-8.49c11.31-3.29,6.5-20.83-4.88-17.52c-9.73,2.83-19.46,5.67-29.19,8.5
						c-8.45,2.46-9.01,15.33,0,17.51c41.46,10.08,80.4-12.86,107.09-42.62c-4.81-3.67-9.61-7.34-14.42-11
						c-2.85,4.51-6.59,8.09-11.19,10.83c3.71,4.75,7.42,9.51,11.13,14.26c14.52-11.76,26.91-25.93,36.84-41.68
						c5.41-8.59-7.58-18.98-14.42-11.01c-4.87,5.68-9.73,11.35-14.6,17.03c4.33,4.28,8.65,8.56,12.98,12.85
						c24.37-28.62,39.39-63.33,43.72-100.48c0.57-4.88-4.63-9.08-9.18-9.08C339.29,678,336.11,682.19,335.54,687.08"/>
					<path class="st27" d="M236.59,831.95c31.5-16.26,60.33-37.55,85.1-62.74c8.25-8.38-4.72-21.24-12.98-12.85
						c-23.77,24.17-51.17,44.3-81.39,59.9c-4.39,2.27-5.71,8.34-3.29,12.43C226.63,833.1,232.18,834.22,236.59,831.95"/>
					<path class="st27" d="M160.8,822.72c9.99,5.16,20.71,10.23,32.27,7.76c2.89-0.62,2.95-5.26,0-5.84
						c-3.82-0.75-7.7-1.07-11.6-0.84c0.72,1.73,1.44,3.45,2.16,5.17c1.32-1.02,3.49-0.94,4.79,0.08c0.49,0.38,0.94,0.98,1.2,1.55
						c0.18,0.38,0.29,0.87,0.33,1.28c0.02,0.29,0.01,0.58-0.01,0.86c0.19-0.5,0.15-0.53-0.11-0.1c0.36-0.36,0.73-0.72,1.1-1.08
						c0.44-0.32,0.89,0.16,0.2-0.27c-0.33-0.2-0.77-0.31-1.13-0.45c-0.85-0.34-1.7-0.68-2.55-1.02c-1.6-0.65-3.2-1.29-4.81-1.94
						c-3.2-1.29-6.41-2.58-9.61-3.87c-1.53-0.61-3.37,0.67-3.76,2.11c-0.48,1.73,0.6,3.11,2.14,3.73c4.43,1.78,8.86,3.57,13.29,5.35
						c2.01,0.81,4.36,2.22,6.56,2.34c2.7,0.15,4.48-1.89,4.76-4.4c0.42-3.76-1.61-7.6-4.86-9.55c-3.83-2.29-8.45-1.5-11.84,1.11
						c-2.09,1.62-0.34,5.32,2.16,5.17c3.35-0.2,6.68-0.03,9.97,0.62v-5.84c-9.75,2.09-19.18-2.82-27.55-7.15
						C160.4,815.69,157.3,820.91,160.8,822.72"/>
				</g>
				<g class="st19">
					<defs>
						<rect id="SVGID_67_" x="81" y="128.17" width="783.33" height="775"/>
					</defs>
					<clipPath id="SVGID_68_">
						<use xlink:href="#SVGID_67_"  style="overflow:visible;"/>
					</clipPath>
				</g>
				<g class="st19">
					<defs>
						<rect id="SVGID_69_" x="81" y="128.17" width="783.33" height="775"/>
					</defs>
					<clipPath id="SVGID_70_">
						<use xlink:href="#SVGID_69_"  style="overflow:visible;"/>
					</clipPath>
				</g>
				<g class="st19">
					<defs>
						<rect id="SVGID_71_" x="81" y="128.17" width="783.33" height="775"/>
					</defs>
					<clipPath id="SVGID_72_">
						<use xlink:href="#SVGID_71_"  style="overflow:visible;"/>
					</clipPath>
					<g class="st28">
						<g>
							<defs>
								<rect id="SVGID_73_" x="336" y="401.24" width="278.91" height="307.95"/>
							</defs>
							<clipPath id="SVGID_74_">
								<use xlink:href="#SVGID_73_"  style="overflow:visible;"/>
							</clipPath>
						</g>
					</g>
				</g>
				<g class="st19">
					<defs>
						<rect id="SVGID_75_" x="81" y="128.17" width="783.33" height="775"/>
					</defs>
					<clipPath id="SVGID_76_">
						<use xlink:href="#SVGID_75_"  style="overflow:visible;"/>
					</clipPath>
					<g class="st29">
						<g>
							<defs>
								<rect id="SVGID_77_" x="304.12" y="358.93" width="335.46" height="315.18"/>
							</defs>
							<clipPath id="SVGID_78_">
								<use xlink:href="#SVGID_77_"  style="overflow:visible;"/>
							</clipPath>
						</g>
					</g>
				</g>
				<g class="st19">
					<defs>
						<rect id="SVGID_79_" x="81" y="128.17" width="783.33" height="775"/>
					</defs>
					<clipPath id="SVGID_80_">
						<use xlink:href="#SVGID_79_"  style="overflow:visible;"/>
					</clipPath>
					<path class="st30" d="M447.15,604.06v-18.95v-24.26c0-10.84,8.89-19.63,19.84-19.63h81.41c13.4,0,23.11,12.93,18.93,25.53
						c-5.57,16.77-16.72,38.3-39.1,54.69c-34.61,25.34-79.22,26.05-113.51,10.7c-52.03-23.3-64.11-76.33-66.21-85.56
						c-1.48-6.52-13.26-62.68,25.68-109.63c32.18-38.8,84.95-54.38,132.43-42.78c85.05,20.78,124.77,128.14,85.88,202.59
						c-29.15,55.82-97.52,88.14-160.02,76.97c-62.5-11.17-114.68-64.06-125.97-125.9c-11.32-61.98,18.2-128.72,70.71-163.91
						c77.39-51.86,188.53-30.52,240.2,46.34c31.37,46.66,28.5,96.97,27.03,112.31c-10.5,109.17-116.3,163.89-125.99,168.71"/>
				</g>
				<g class="st19">
					<defs>
						<rect id="SVGID_81_" x="81" y="128.17" width="783.33" height="775"/>
					</defs>
					<clipPath id="SVGID_82_">
						<use xlink:href="#SVGID_81_"  style="overflow:visible;"/>
					</clipPath>
					<path class="st31" d="M394.79,508.31l-1.8,35.99c0.02,10.71,8.82,19.37,19.64,19.34c10.82-0.03,19.61,8.63,19.64,19.34
						l0.05,20.72"/>
				</g>
				<g class="st19">
					<defs>
						<rect id="SVGID_83_" x="81" y="128.17" width="783.33" height="775"/>
					</defs>
					<clipPath id="SVGID_84_">
						<use xlink:href="#SVGID_83_"  style="overflow:visible;"/>
					</clipPath>
					<path class="st32" d="M556.47,565.31h-95.79c-5.22,0-9.46-4.19-9.46-9.36c0-5.17,4.24-9.36,9.46-9.36h95.79
						c5.22,0,9.46,4.19,9.46,9.36C565.93,561.12,561.69,565.31,556.47,565.31"/>
					<path class="st33" d="M556.47,565.31h-95.79c-5.22,0-9.46-4.19-9.46-9.36c0-5.17,4.24-9.36,9.46-9.36h95.79
						c5.22,0,9.46,4.19,9.46,9.36C565.93,561.12,561.69,565.31,556.47,565.31z"/>
				</g>
				<g class="st19">
					<defs>
						<rect id="SVGID_85_" x="81" y="128.17" width="783.33" height="775"/>
					</defs>
					<clipPath id="SVGID_86_">
						<use xlink:href="#SVGID_85_"  style="overflow:visible;"/>
					</clipPath>
					<g class="st34">
						<g>
							<defs>
								<rect id="SVGID_87_" x="207.78" y="291.18" width="499.23" height="469.76"/>
							</defs>
							<clipPath id="SVGID_88_">
								<use xlink:href="#SVGID_87_"  style="overflow:visible;"/>
							</clipPath>
						</g>
					</g>
				</g>
			</g>
		</g>
	</g>
	<g id="Calque_3">
		<g>
			<g>
				<path class="st18" d="M1866.42,576.5c3.22,0,3.22-5,0-5C1863.2,571.5,1863.19,576.5,1866.42,576.5L1866.42,576.5z"/>
			</g>
		</g>
		<g>
			<g>
				<path class="st18" d="M1866.42,576.5c3.22,0,3.22-5,0-5C1863.2,571.5,1863.19,576.5,1866.42,576.5L1866.42,576.5z"/>
			</g>
		</g>
		<g>
			<g>
				<path class="st18" d="M1856.65,569.69c-0.12,20.07-1.78,40.11-1.43,60.19c0.18,10.31,0.55,20.97,2.99,31.03
					c2.06,8.53,5.69,17,10.79,24.16c5.66,7.94,12.69,15.43,21.57,19.75c8.46,4.12,18.08,6.4,27.51,5.26
					c2.83-0.34,5.65-0.69,8.41-1.42c2.8-0.74,5.45-1.87,8.1-3.02c4.34-1.88,8.04-4.7,11.72-7.63c2.82-2.25,5.41-4.8,7.7-7.59
					c2.84-3.45,5.51-7.06,7.67-10.98c7.82-14.22,10.74-30.8,10.41-46.9c-0.04-1.75-0.12-3.5-0.23-5.25
					c-0.22-3.33-1.25-6.43-3.66-8.84c-2.17-2.17-5.73-3.8-8.84-3.66c-3.23,0.14-6.59,1.21-8.84,3.66c-2.16,2.35-3.87,5.54-3.66,8.84
					c0.45,6.91,0.31,13.86-0.6,20.73c0.15-1.11,0.3-2.22,0.45-3.32c-0.91,6.7-2.55,13.28-5.17,19.52c0.42-1,0.84-1.99,1.26-2.99
					c-1.95,4.57-4.41,8.88-7.44,12.82c0.65-0.84,1.3-1.69,1.95-2.53c-2.7,3.46-5.8,6.56-9.26,9.26c0.84-0.65,1.69-1.3,2.53-1.95
					c-2.79,2.14-5.72,4-8.97,5.37c1-0.42,1.99-0.84,2.99-1.26c-2.99,1.23-6.1,2.07-9.31,2.52c1.11-0.15,2.22-0.3,3.32-0.45
					c-3.42,0.45-6.87,0.44-10.29-0.01c1.11,0.15,2.22,0.3,3.32,0.45c-3.31-0.47-6.52-1.35-9.6-2.63c1,0.42,1.99,0.84,2.99,1.26
					c-3-1.28-5.81-2.92-8.4-4.91c0.84,0.65,1.69,1.3,2.53,1.95c-3.47-2.72-6.54-5.97-9.24-9.45c0.65,0.84,1.3,1.69,1.95,2.53
					c-3.05-3.97-5.56-8.3-7.53-12.9c0.42,1,0.84,1.99,1.26,2.99c-2.24-5.32-3.73-10.91-4.57-16.62c0.15,1.11,0.3,2.22,0.45,3.32
					c-2.31-21.02-1.03-42.16-0.27-63.23c0.22-6.02,0.39-12.05,0.42-18.08c0.02-3.19-1.41-6.59-3.66-8.84
					c-2.17-2.17-5.73-3.8-8.84-3.66C1862.34,557.5,1856.69,562.69,1856.65,569.69L1856.65,569.69z"/>
			</g>
		</g>
		<g>
			<g>
				<path class="st18" d="M1395.58,776.5c3.22,0,3.22-5,0-5C1392.37,771.5,1392.36,776.5,1395.58,776.5L1395.58,776.5z"/>
			</g>
		</g>
	</g>
	<g id="Calque_2">
		<g>
			<rect x="681.42" y="555.95" class="st35" width="164.17" height="147.22"/>
			<text transform="matrix(1 0 0 1 681.4166 701.5504)" class="st18 st36 st37">N </text>
		</g>
		<g>
			<polygon class="st35" points="2156,713.58 876.83,713.58 876.83,559.42 1964.33,559.42 2156,559.42 			"/>
			<text transform="matrix(1 0 0 1 876.8333 705.0163)" class="st18 st36 st37">MANGE O </text>
		</g>
	</g>
</g>
</svg>
