<svg xmlns="http://www.w3.org/2000/svg" viewBox="0 0 198.07 194.17"><defs><style>.cls-1,.cls-4,.cls-5{fill:none;}.cls-1,.cls-3,.cls-4,.cls-5,.cls-6{stroke:#ffcb0f;stroke-miterlimit:10;}.cls-1{stroke-width:4px;}.cls-2,.cls-3,.cls-6{fill:#ffcb0f;}.cls-5,.cls-6{stroke-width:3px;}</style></defs><g id="Calque_2" data-name="Calque 2"><ellipse class="cls-1" cx="108.36" cy="85.85" rx="67.11" ry="66.89"/></g><g id="Calque_15" data-name="Calque 15"><path class="cls-2" d="M181.42,86.84c10.35-7.86,20.33-16.9,25.33-29.19a46.88,46.88,0,0,0,3-11.3c.13-.94-1.31-1.35-1.44-.4a46.54,46.54,0,0,1-6.5,18.14,66.18,66.18,0,0,1-12.43,14.34c-2.79,2.5-5.72,4.85-8.7,7.12-.76.57,0,1.88.75,1.29Z" transform="translate(-19.03 -42.02)"/><path class="cls-2" d="M74.18,169.62c-1.43,2-2.55,4.22-4.31,5.95-2.29,2.24-5.81,2.6-8.85,3A54.29,54.29,0,0,0,51,180.2c-3.14,1-6,3-8.76,4.7a75.77,75.77,0,0,0-14.75,11.77c-4,4.25-7.35,9.49-8.21,15.39-.75,5.16.51,11.31,4.66,14.79,3.63,3,8.6,3.6,13.15,3.2,11.48-1,21.82-6.94,30.22-14.55a65.35,65.35,0,0,0,7.25-7.35,38.18,38.18,0,0,0,5.3-9c2.64-6.28,3.73-13,5.35-19.62.23-.94-1.21-1.34-1.44-.4-1.4,5.63-2.38,11.39-4.3,16.88a38.68,38.68,0,0,1-9.55,14.91C61.78,219,52.41,225.61,41,228c-4.51.93-9.74,1.32-14-.81-4.9-2.46-6.82-8.18-6.5-13.38.37-6,3.67-11.46,7.67-15.74a72.42,72.42,0,0,1,14-11.37c3.07-2,6.25-4.2,9.78-5.21s7.33-1.11,11-1.67c2.89-.45,5.77-1,7.92-3.14,1.86-1.82,3-4.16,4.54-6.25.57-.79-.73-1.54-1.29-.76Z" transform="translate(-19.03 -42.02)"/><path class="cls-2" d="M209.55,45.62c-4.56-5-11.22-4.13-16.74-1.26a44,44,0,0,0-8.16,5.78c-3.49,3-6.93,6-10.34,9.07-3.88,3.5-7.73,7-11.59,10.58-.71.65.35,1.71,1.06,1.06,6.23-5.71,12.44-11.44,18.82-17,4.84-4.2,10-9,16.49-10.22a9.71,9.71,0,0,1,9.4,3c.65.72,1.71-.34,1.06-1.06Z" transform="translate(-19.03 -42.02)"/><path class="cls-2" d="M176,80.64c11.66-10.31,22.57-22.11,28-37,.33-.9-1.12-1.3-1.45-.4-5.33,14.6-16.16,26.18-27.61,36.31-.73.64.34,1.69,1.06,1.06Z" transform="translate(-19.03 -42.02)"/><path class="cls-2" d="M20.37,218.78c10.63,6.89,23.36,2.68,33.46-3.07,5-2.85,9.8-6,13.39-10.57a44.81,44.81,0,0,0,6.87-13.25c2-5.74,3.39-11.67,5.44-17.39.33-.91-1.12-1.3-1.44-.4-3.33,9.29-4.89,19.48-10.4,27.85-3,4.63-7.18,7.92-11.84,10.81a57.12,57.12,0,0,1-16,7.23c-6.44,1.63-13.08,1.17-18.75-2.51-.81-.53-1.56.77-.76,1.3Z" transform="translate(-19.03 -42.02)"/></g><g id="Calque_23" data-name="Calque 23"><path class="cls-3" d="M28.55,221.29a34,34,0,0,1,3.21-10.12c4.25-8.45,10.91-12.74,14.53-15a48.5,48.5,0,0,1,27.5-7,42.81,42.81,0,0,1-10,18.46C50.48,221.86,31.73,221.41,28.55,221.29Z" transform="translate(-19.03 -42.02)"/></g><g id="Calque_21" data-name="Calque 21"><path class="cls-2" d="M209.39,48.31c6.15,4.1,6.89,12.44,4.08,18.75-3.17,7.12-9.65,11.84-16.07,15.85-4,2.49-8,4.82-11.81,7.6-1,.76,0,2.49,1,1.73,7.07-5.21,15.26-8.87,21.73-14.9,5.71-5.32,10-13.06,8.42-21.08a15.17,15.17,0,0,0-6.35-9.67c-1.07-.72-2.07,1-1,1.72Z" transform="translate(-19.03 -42.02)"/><path class="cls-2" d="M209.45,48.12a1,1,0,0,0,0-2,1,1,0,0,0,0,2Z" transform="translate(-19.03 -42.02)"/><path class="cls-2" d="M209,48.08l.06,0-.24-.1a1,1,0,0,1,.17.1l-.2-.16a.86.86,0,0,1,.13.14l-.15-.2a.75.75,0,0,1,.07.12l1.73-1-.48-.67-1.57,1.21.52.54a.75.75,0,0,0,.32.21.86.86,0,0,0,.39.09.82.82,0,0,0,.38-.09.69.69,0,0,0,.32-.21l.16-.2a1,1,0,0,0,.14-.5l0-.27a.94.94,0,0,0-.26-.44l-.51-.55a.86.86,0,0,0-.33-.2.63.63,0,0,0-.38-.09l-.27,0a.84.84,0,0,0-.34.17.77.77,0,0,0-.18.18.75.75,0,0,0-.18.34l0,.27a1,1,0,0,0,.13.5l.48.68a.78.78,0,0,0,.26.28.75.75,0,0,0,.34.18.78.78,0,0,0,.4,0,.81.81,0,0,0,.37-.12l.21-.16a1,1,0,0,0,.25-.44l0-.26a1,1,0,0,0-.14-.51,1.86,1.86,0,0,0-.23-.32l-.11-.12a3.81,3.81,0,0,0-.32-.24l-.38-.16a.74.74,0,0,0-.39,0,.73.73,0,0,0-.38.11.87.87,0,0,0-.28.26.75.75,0,0,0-.18.34l0,.27a1,1,0,0,0,.13.5l.16.2a1,1,0,0,0,.44.26Z" transform="translate(-19.03 -42.02)"/><path class="cls-2" d="M207.93,52.36l.25.71L214,51.48l-.48-1.37A3.08,3.08,0,0,0,209.79,48a3,3,0,0,0-2.09,3.69c1.1,3.68,2.43,7.72,1.4,11.57-.89,3.3-3.28,5.92-5.76,8.17a80.92,80.92,0,0,1-9.37,7.1c-1.73,1.16-3.48,2.28-5.25,3.39a48.65,48.65,0,0,1-5.39,3.27l1.51-.4-.27,0,1.51.41-.2-.14,1.49,2.59,0-.3-.88,2.12a41.46,41.46,0,0,1,4.55-4.12c1.56-1.39,3.13-2.76,4.71-4.13q4.74-4.11,9.55-8.12l-4.24-4.25c-.51.54-.23.14-.06.13l2.59,4.52c3.94-5.56,9.1-11.36,9.24-18.54.07-3.86-5.93-3.86-6,0-.06,2.79-1.38,5.26-2.86,7.57-1.74,2.71-3.7,5.31-5.56,7.94-1.3,1.82.42,4.64,2.59,4.51a6.22,6.22,0,0,0,4.3-1.88,3,3,0,0,0-4.24-4.25q-6.66,5.56-13.18,11.3-1.64,1.43-3.25,2.88c-1.09,1-2.75,2.05-3.15,3.52a3.32,3.32,0,0,0,3.07,4.24c1.5,0,2.81-1,4-1.77,4.73-2.9,9.44-5.85,13.86-9.2,4.08-3.09,8.29-6.46,10.79-11a17.42,17.42,0,0,0,2.2-8.76,37.36,37.36,0,0,0-2-10l-5.78,1.6.48,1.36a3.07,3.07,0,0,0,3.69,2.1A3,3,0,0,0,214,51.48l-.25-.72A3.06,3.06,0,0,0,210,48.67a3,3,0,0,0-2.09,3.69Z" transform="translate(-19.03 -42.02)"/></g><g id="Calque_22" data-name="Calque 22"><path class="cls-4" d="M89.14,184.86a83,83,0,0,1-5.59,19.28c-1.9,4.43-3.9,9.11-7.74,14.05-1.51,1.95-13.78,17.27-31.07,17.5a26.85,26.85,0,0,1-13.34-3,20.94,20.94,0,0,1-7.73-6.31A19.82,19.82,0,0,1,20,216.17" transform="translate(-19.03 -42.02)"/><path class="cls-2" d="M66.64,226.93a1,1,0,0,0,0-2,1,1,0,0,0,0,2Z" transform="translate(-19.03 -42.02)"/><path class="cls-2" d="M83.19,184.62a55.26,55.26,0,0,1-12.54,28.95,3.09,3.09,0,0,0,0,4.24,3,3,0,0,0,4.25,0l4.77-5.62L75,208.55a51.58,51.58,0,0,1-11.1,12.56,3,3,0,0,0-.24,3.93,3,3,0,0,0,3.87.78,17.58,17.58,0,0,0,5.81-5.73c1.78-2.85-2.43-6.22-4.71-3.64C61.36,224.6,50.85,231.79,39.43,229v5.78L49,232c3.69-1.08,2.12-6.88-1.6-5.78L37.83,229c-2.76.81-2.94,5.06,0,5.78,13.55,3.33,26.28-4.25,35-14.08l-4.71-3.63a10.81,10.81,0,0,1-3.66,3.58l3.64,4.71a56.4,56.4,0,0,0,12-13.77c1.76-2.83-2.48-6.27-4.72-3.63l-4.77,5.62,4.25,4.24a62.45,62.45,0,0,0,14.29-33.19c.18-1.61-1.52-3-3-3a3.06,3.06,0,0,0-3,3Z" transform="translate(-19.03 -42.02)"/><path class="cls-2" d="M50.85,232.47a109.81,109.81,0,0,0,27.81-20.72c2.7-2.77-1.54-7-4.24-4.24a104.6,104.6,0,0,1-26.6,19.78,3,3,0,1,0,3,5.18Z" transform="translate(-19.03 -42.02)"/><path class="cls-2" d="M26.08,229.43c3.26,1.7,6.77,3.38,10.54,2.56a1,1,0,0,0,0-1.93,15,15,0,0,0-3.78-.28l.7,1.71a1.34,1.34,0,0,1,1.57,0,1.42,1.42,0,0,1,.39.51,1.19,1.19,0,0,1,.11.42,2.81,2.81,0,0,1,0,.29c.07-.17,0-.18,0,0l.36-.36c.14-.1.29.06.06-.08a2.43,2.43,0,0,0-.37-.16l-.83-.33-1.57-.64-3.14-1.28a1,1,0,0,0-1.23.7,1,1,0,0,0,.69,1.23l4.35,1.76a7.25,7.25,0,0,0,2.14.78,1.51,1.51,0,0,0,1.56-1.46A3.34,3.34,0,0,0,36,229.71a3.39,3.39,0,0,0-3.87.37c-.69.53-.11,1.75.71,1.7a12.65,12.65,0,0,1,3.25.21v-1.93c-3.18.69-6.27-.93-9-2.36-1.14-.6-2.15,1.13-1,1.73Z" transform="translate(-19.03 -42.02)"/></g><g id="Calque_10" data-name="Calque 10"><path class="cls-5" d="M119.66,157.2V142.93a6.49,6.49,0,0,1,6.49-6.49h26.6a6.47,6.47,0,0,1,6.19,8.43,36.27,36.27,0,0,1-12.78,18.07c-11.31,8.37-25.89,8.6-37.1,3.53-17-7.69-21-25.21-21.64-28.26-.48-2.15-4.33-20.7,8.39-36.21a43,43,0,0,1,43.28-14.13c27.8,6.86,40.78,42.32,28.07,66.92-9.53,18.44-31.87,29.11-52.3,25.42S77.39,159.05,73.7,138.62,79.64,96.1,96.8,84.48c25.29-17.13,61.62-10.08,78.5,15.31,10.26,15.41,9.32,32,8.84,37.1C180.71,173,146.13,191,143,192.62" transform="translate(-19.03 -42.02)"/></g><g id="Calque_12" data-name="Calque 12"><path class="cls-5" d="M102.55,125.57,102,137.46a6.41,6.41,0,0,0,6.42,6.39h0a6.4,6.4,0,0,1,6.42,6.39v6.84" transform="translate(-19.03 -42.02)"/></g><g id="Calque_13" data-name="Calque 13"><rect class="cls-6" x="101.96" y="96.19" width="37.49" height="6.18" rx="3.09"/></g></svg>